<?xml version="1.0" standalone="no"?>
<!DOCTYPE svg PUBLIC "-//W3C//DTD SVG 1.1//EN" "http://www.w3.org/Graphics/SVG/1.1/DTD/svg11.dtd" >
<svg xmlns="http://www.w3.org/2000/svg" xmlns:xlink="http://www.w3.org/1999/xlink" version="1.1">
<metadata>
Created by FontForge 20161116 at Sun Dec  9 00:35:52 2012
 By Jimmy Wärting
Typeface (c) (your company). 2012. All Rights Reserved
</metadata>
<defs>
<font id="SoRandom!" horiz-adv-x="1014" >
  <font-face 
    font-family="So Random!"
    font-weight="400"
    font-stretch="normal"
    units-per-em="2048"
    panose-1="2 0 5 0 0 0 0 0 0 0"
    ascent="1638"
    descent="-410"
    x-height="1429"
    cap-height="1433"
    bbox="-342 -418 2134 1716"
    underline-thickness="150"
    underline-position="-292"
    unicode-range="U+0020-F002"
  />
<missing-glyph horiz-adv-x="1024" 
d="M100 0v1434h824v-1434h-824zM150 50h724v1334h-724v-1334zM325 1148q31 28 58 43q53 30 112 30q92 0 148 -47.5t56 -127.5q0 -49 -23 -98.5t-87 -129.5q-63 -80 -99 -132t-36 -99q0 -38 24 -133h-32q-35 97 -35 148q0 76 81.5 218t81.5 217q0 57 -33 90t-91 33
q-38 0 -69 -17q-26 -15 -56 -40v45zM389 334l57 58q11 10 20 10q10 0 22 -11l56 -60q9 -11 9 -20q0 -11 -10 -22l-56 -62q-14 -14 -21 -14q-11 0 -20 10l-61 71q-7 9 -7 18q0 10 11 22z" />
    <glyph glyph-name=".notdef" horiz-adv-x="1024" 
d="M100 0v1434h824v-1434h-824zM150 50h724v1334h-724v-1334zM325 1148q31 28 58 43q53 30 112 30q92 0 148 -47.5t56 -127.5q0 -49 -23 -98.5t-87 -129.5q-63 -80 -99 -132t-36 -99q0 -38 24 -133h-32q-35 97 -35 148q0 76 81.5 218t81.5 217q0 57 -33 90t-91 33
q-38 0 -69 -17q-26 -15 -56 -40v45zM389 334l57 58q11 10 20 10q10 0 22 -11l56 -60q9 -11 9 -20q0 -11 -10 -22l-56 -62q-14 -14 -21 -14q-11 0 -20 10l-61 71q-7 9 -7 18q0 10 11 22z" />
    <glyph glyph-name=".null" horiz-adv-x="0" 
 />
    <glyph glyph-name="nonmarkingreturn" horiz-adv-x="508" 
 />
    <glyph glyph-name="space" unicode=" " horiz-adv-x="508" 
 />
    <glyph glyph-name="space" unicode="&#xa0;" horiz-adv-x="508" 
 />
    <glyph glyph-name="exclam" unicode="!" horiz-adv-x="613" 
d="M249 1433h25q212 0 212 -137l13 -174q0 -611 -150 -611h-149q-112 79 -112 399v61q0 372 161 462zM374 1271v-24h12v24h-12zM286 1259v-12h25v12h-25zM125 1071v-24h12v24h-12zM137 486h12q25 -4 25 -24l-25 -14h-12v38zM462 486h12v-12q0 -26 -26 -26l-12 26zM299 462
h24q151 0 151 -125q-58 -237 -225 -237q-137 85 -137 174v25q0 128 187 163zM88 436q24 -3 24 -25q0 -25 -24 -25q-26 0 -26 25q4 25 26 25zM212 411v-25h13v25h-13zM536 386h37v-12q0 -25 -25 -25h-12q-25 0 -25 25zM37 286h12q26 -4 26 -24q0 -18 -38 -37h-12
q-25 0 -25 24q0 18 37 37zM511 237h37v-25h-37v25zM137 112l12 -24l-24 -13l-13 25zM436 112h26v-24q0 -26 -26 -26q-25 0 -25 26q4 24 25 24zM262 49h37v-24q0 -25 -25 -25h-12v49z" />
    <glyph glyph-name="quotedbl" unicode="&#x22;" horiz-adv-x="672" 
d="M86 1549q17 -3 17 -17l-17 -9q-17 0 -17 17zM302 1549h8v-26h-8q-18 0 -18 17zM198 1532h9q103 0 103 -95q0 -89 -189 -207q0 -17 -43 -17v9q0 9 51 68v9q-61 50 -77 112q13 62 77 112l18 -9q28 18 51 18zM43 1514q17 -2 17 -17q0 -17 -17 -17t-17 17q3 17 17 17z
M353 1489q13 0 26 -26l-17 -9h-9q-17 0 -17 17q3 18 17 18zM395 1526q17 -3 17 -17l-17 -9q-17 0 -17 17zM611 1526h8v-26h-8q-18 0 -18 17zM507 1509h9q103 0 103 -95q0 -89 -189 -207q0 -17 -43 -17v9q0 9 51 68v9q-61 50 -77 112q13 62 77 112l18 -9q28 18 51 18z
M352 1491q17 -2 17 -17q0 -17 -17 -17t-17 17q3 17 17 17zM662 1466q13 0 26 -26l-17 -9h-9q-17 0 -17 17q3 18 17 18z" />
    <glyph glyph-name="numbersign" unicode="#" horiz-adv-x="1336" 
d="M596 859l-85 -290h242l86 290h-243zM673 1434h93l-141 -477h242l142 477h92l-141 -477h259l-29 -97h-259l-83 -290h279l-30 -98h-280l-140 -472h-92l139 472h-240l-142 -472h-92l140 472h-273l30 98h271l86 290h-295l29 97h295z" />
    <glyph glyph-name="dollar" unicode="$" 
d="M577 1552v-102q68 -8 141 -35q10 -6 19 -6q25 0 41 45h50l103 -282h-49q-60 134 -168 179q-74 30 -137 39v-540q241 -93 322.5 -183t81.5 -264q0 -197 -119.5 -300t-284.5 -120v-239h-73v237q-188 3 -266 38q-10 6 -19 6q-25 0 -41 -45h-50v331h49q50 -183 152.5 -226
t174.5 -43v635q-214 67 -299 153q-92 91 -92 249q0 166 125 271q105 88 266 102v100h73zM577 655v-610q125 17 211.5 96t86.5 219q0 116 -69 183q-62 59 -229 112zM504 873v520q-119 -5 -199 -72q-86 -73 -86 -182q0 -98 55 -153q52 -54 230 -113z" />
    <glyph glyph-name="percent" unicode="%" horiz-adv-x="1610" 
d="M449 1459q98 0 190.5 -49t144.5 -139.5t52 -190.5q0 -99 -50.5 -188.5t-143 -140t-193.5 -50.5q-100 0 -192.5 50.5t-143.5 140t-51 188.5q0 100 52 190.5t144.5 139.5t190.5 49zM206 1066q13 -92 55.5 -173.5t106.5 -124.5q57 -40 114 -40q7 0 13 1q63 3 115 53t73 136
q13 54 13 111q0 32 -4 65q-12 93 -56 175.5t-107 124.5q-58 38 -115 38h-11q-61 -3 -113 -52t-73 -135q-15 -58 -15 -117q0 -31 4 -62zM297 -29l940 1461h84l-938 -1461h-86zM1161 738q97 0 190 -49.5t145 -140t52 -189.5q0 -100 -50.5 -189.5t-143 -139.5t-193.5 -50
t-193 50t-143 139.5t-51 189.5q0 99 52 189.5t144.5 140t190.5 49.5zM918 344q13 -92 55.5 -173.5t106.5 -124.5q59 -39 116 -39h11q63 3 115 53t73 136q13 54 13 111q0 32 -4 65q-12 93 -56 175.5t-107 124.5q-58 38 -115 38h-11q-61 -3 -113 -52t-73 -135
q-15 -58 -15 -117q0 -31 4 -62z" />
    <glyph glyph-name="ampersand" unicode="&#x26;" horiz-adv-x="1683" 
d="M1051 196l-554 683q-118 0 -179.5 -86t-61.5 -204q0 -91 35.5 -181.5t101.5 -164.5q72 -83 165 -127t194 -44q88 0 169 33.5t130 90.5zM1394 0q-56 0 -139 25t-167 132q-67 -74 -175 -123.5t-241 -49.5q-229 0 -374.5 150.5t-145.5 385.5q0 161 76 266.5t225 151.5
q-42 61 -62.5 116t-20.5 111q0 105 77 197t182 92q68 0 142 -39q9 -6 18 -6q23 0 38 45h46l96 -281h-46q-55 133 -155 178q-85 37 -141 37q-65 0 -106 -45.5t-41 -117.5q0 -131 102 -267l531 -670q98 146 121 244q17 78 17 130q0 97 -62 97h-90v50h443v-50h-90
q-95 0 -145 -227q-31 -132 -155 -292q109 -136 248 -136h16q143 17 192 128l49 -1l-103 -231h-160z" />
    <glyph glyph-name="quotesingle" unicode="'" horiz-adv-x="406" 
d="M86 1549q17 -3 17 -17l-17 -9q-17 0 -17 17zM302 1549h8v-26h-8q-18 0 -18 17zM198 1532h9q103 0 103 -95q0 -89 -189 -207q0 -17 -43 -17v9q0 9 51 68v9q-61 50 -77 112q13 62 77 112l18 -9q28 18 51 18zM43 1514q17 -2 17 -17q0 -17 -17 -17t-17 17q3 17 17 17z
M353 1489q13 0 26 -26l-17 -9h-9q-17 0 -17 17q3 18 17 18z" />
    <glyph glyph-name="parenleft" unicode="(" horiz-adv-x="758" 
d="M252 601q2 277 99.5 530t268.5 442h80q-172 -242 -230 -438q-57 -193 -57 -523v-22q0 -330 57 -522q58 -196 230 -438h-80q-171 189 -268.5 441.5t-99.5 529.5z" />
    <glyph glyph-name="parenright" unicode=")" horiz-adv-x="758" 
d="M138 -370h-80q172 242 230 438q57 192 57 522v22q0 330 -57 523q-58 196 -230 438h80q171 -189 268.5 -442t99.5 -530q-2 -277 -99.5 -529.5t-268.5 -441.5z" />
    <glyph glyph-name="asterisk" unicode="*" horiz-adv-x="1024" 
d="M537 1689q31 0 86 -260q228 -9 313 -9l8 -17q-90 -56 -234 -165q0 -55 52 -269l-17 -9q-87 30 -226 122h-8q-209 -165 -235 -165l-8 17q60 177 104 269q-102 76 -217 200q26 8 26 17l104 -9h9q165 0 165 87q54 180 78 191zM528 1637q0 -29 -43 -130v-9h8q0 42 44 61h8
q21 0 26 -70h9v9q-26 139 -52 139zM519 1516q-38 -150 -69 -165h-122v-9q18 0 105 -69q-18 -89 -44 -165l87 69h17q24 0 174 -78v9q-44 119 -44 156q79 29 122 69q-165 0 -165 44q-43 124 -43 139h-18zM476 1489v-17h9v17h-9zM467 1463v-17h9v17h-9zM441 1403v-18h9v18h-9z
M615 1403v-26l104 -9h113q21 17 34 17v9h-121q-44 0 -130 9zM372 1394v-9h43v9h-43zM276 1333q38 -50 113 -104l9 18v8q-66 63 -122 78zM658 1247q0 -22 26 -104h9v8q-18 84 -18 96h-17zM355 1021q-18 0 -18 26h-9l-8 -61h8q90 55 174 131h26q134 -91 199 -122v9l-8 52
l-26 -18l-182 105h-9q-43 0 -147 -122z" />
    <glyph glyph-name="plus" unicode="+" 
d="M437 647h-350v140h350v369l1 1h139v-370h349l1 -1v-139h-350v-370h-140v370z" />
    <glyph glyph-name="comma" unicode="," horiz-adv-x="557" 
d="M115 342q25 -5 25 -30l-25 -14q-25 0 -25 29zM433 342h12v-44h-12q-26 0 -26 29zM280 312h13q152 0 152 -161q0 -150 -279 -351q0 -29 -64 -29v15q0 16 76 117v14q-90 85 -114 191q19 105 114 190l26 -15q42 29 76 29zM51 283q26 -4 26 -29q0 -29 -26 -29q-25 0 -25 29
q4 29 25 29zM509 239q18 0 38 -44l-25 -14h-13q-26 0 -26 29q4 29 26 29z" />
    <glyph glyph-name="hyphen" unicode="-" horiz-adv-x="670" 
d="M156 409q-40 0 -40 28v83q0 29 41 29h356q41 0 41 -29v-83q0 -28 -40 -28h-358z" />
    <glyph glyph-name="hyphen" unicode="&#xad;" horiz-adv-x="670" 
d="M156 409q-40 0 -40 28v83q0 29 41 29h356q41 0 41 -29v-83q0 -28 -40 -28h-358z" />
    <glyph glyph-name="period" unicode="." horiz-adv-x="557" 
d="M157 322h9q18 -3 18 -18l-18 -9h-9v27zM392 322h9v-9q0 -18 -18 -18l-9 18zM274 304h18q109 0 109 -91q-42 -172 -163 -172q-100 62 -100 127v18q0 94 136 118zM120 286q18 -3 18 -18q0 -18 -18 -18t-18 18q3 18 18 18zM211 268v-18h9v18h-9zM446 250h27v-9
q0 -19 -18 -19h-9q-18 0 -18 19zM84 177h9q18 -3 18 -18q0 -13 -27 -27h-9q-18 0 -18 18q0 13 27 27zM428 141h27v-18h-27v18zM157 50l9 -18l-18 -9l-10 18zM374 50h18v-18q0 -18 -18 -18t-18 18q3 18 18 18zM247 5h27v-18q0 -18 -18 -18h-9v36z" />
    <glyph glyph-name="slash" unicode="/" horiz-adv-x="569" 
d="M93 -50h-80l541 1484h80z" />
    <glyph glyph-name="zero" unicode="0" horiz-adv-x="1482" 
d="M751 1438q346 -72 429 -122q229 -210 272 -372q22 -90 22 -186q0 -231 -150 -479q-284 -279 -480 -279h-107q-342 0 -565 229q-1 37 -115 136q-57 126 -57 243v14q0 288 236 587q262 215 458 215q0 9 57 14zM751 1402q0 -10 -200 -193q-165 -215 -358 -501
q-127 -148 -150 -207q0 -63 79 -143q262 291 608 801q10 0 179 222q-55 0 -158 21zM29 587l7 -36q173 209 386 536q87 114 265 301h-86q-394 -381 -458 -501q-114 -37 -114 -300zM143 336v-7q43 -64 50 -64q12 5 265 336q52 59 350 479q9 2 115 158q20 0 93 107q-7 0 -57 14
h-15q-282 -311 -343 -443q-6 0 -458 -580zM79 873h7q30 14 286 336q22 3 136 136h-14q-266 -123 -387 -379q0 -20 -28 -93zM1045 1331q-134 -141 -408 -537q-334 -412 -422 -558q-8 0 -8 -7q59 -52 136 -100h15q0 47 171 250q88 102 179 236q216 289 379 465q12 0 129 165
q-97 80 -171 86zM372 114q34 -21 79 -21q52 67 171 193q180 235 651 751q0 10 65 79l-100 100q-266 -294 -680 -844q-168 -195 -186 -258zM1345 1087q-104 -132 -844 -965q-22 -44 -22 -50q64 -29 136 -29h29q146 225 422 508l250 300q74 108 93 108q0 18 -50 128h-14z
M672 36h136q34 0 58 57q116 173 307 422q0 14 172 186q52 93 100 93q-7 88 -21 136h-7q-330 -393 -566 -651q-6 -21 -179 -243zM887 72v-29h7q135 0 394 236q157 244 157 472v29q-395 -431 -558 -708z" />
    <glyph glyph-name="one" unicode="1" horiz-adv-x="1821" 
d="M738 1451q482 0 644 -507q17 -120 17 -163q0 -169 -128 -446q95 0 240 -241q76 -60 180 -60q67 0 189 95q9 0 9 -9q-26 -120 -155 -120h-103q-206 43 -206 155q-39 87 -180 137h-17q-169 -223 -498 -223h-95q-377 0 -601 489q-25 77 -34 172q0 398 352 618q0 51 292 103
h94zM52 756q0 -215 154 -378q162 -258 498 -258h17q271 0 455 155q172 232 172 523v18q0 330 -318 541q-128 51 -163 51h-26q-572 0 -729 -378q-60 -132 -60 -274zM601 1322q23 -40 77 -292q-15 0 -249 -189q-223 98 -240 129v26q272 326 412 326zM798 1314q129 0 447 -318
q-79 -94 -232 -155q-28 0 -283 172q40 301 68 301zM240 987v-8q103 -77 146 -77h35q143 85 206 163v8q-35 125 -35 163v43q-9 0 -25 9q-177 -57 -327 -301zM824 1271q-17 -54 -34 -249q185 -129 215 -129h17q154 75 154 112v8q-74 86 -206 172q0 48 -146 86zM713 867h8
q120 -35 120 -120q-21 -129 -120 -129h-34q-112 11 -112 86v17q17 146 138 146zM610 721q0 -65 85 -77h61q42 22 42 69v60q0 68 -68 68q-120 -34 -120 -120zM1219 833q35 -9 35 -35q0 -80 -155 -369l-52 -51h-17q-120 143 -120 171l103 224q0 60 206 60zM155 824
q249 0 249 -68q0 -58 68 -232v-9q-68 -83 -129 -206h-8q-65 0 -198 455v26zM953 541v-9q54 -65 103 -94h9q66 83 120 257q16 0 43 103h-9q-189 0 -189 -60zM172 773q98 -349 129 -387q15 -8 34 -8q38 0 94 171q-62 232 -154 232h-86zM584 489q209 -8 240 -8l189 -198v-8
q-54 -69 -455 -69q-112 0 -137 52q137 231 163 231zM584 464l-112 -206q35 0 155 -9q317 12 317 34q-80 172 -188 172q-96 9 -172 9z" />
    <glyph glyph-name="two" unicode="2" horiz-adv-x="1239" 
d="M1140 1433q11 -17 44 -212v-6q0 -19 -299 -75q-501 -106 -642 -174l-25 -7v-6h19q315 38 947 38q12 -21 12 -38v-37q0 -34 -6 -87q6 -11 6 -25q-12 -7 -18 -7q-496 0 -1028 -49l-7 12q0 17 88 25q31 108 31 125q-89 -19 -106 -19l-25 12v-31q0 -14 6 -25q-12 -99 -25 -99
h-6q-9 0 -19 25l6 24l-6 44q6 53 6 87q-93 182 -93 193q175 100 667 206q395 106 473 106zM978 1358q11 0 119 -137h24q13 0 13 13v12q0 11 -19 150v12q-137 -36 -137 -50zM741 1308q78 -77 106 -137h7q108 7 118 31q-79 108 -118 138q-113 -17 -113 -32zM511 1259
q60 -98 118 -144l106 25q-93 142 -118 143q-12 0 -106 -24zM287 1190q81 -60 112 -131l87 19q0 26 -100 143v6q-99 -25 -99 -37zM50 1097q58 -131 81 -131q20 12 143 50q0 12 -118 130q-51 -15 -106 -49zM854 941l-32 -119h7q53 7 87 7h6q25 99 25 124q-93 -2 -93 -12z
M1072 953q-32 -98 -32 -124h38q68 0 68 18v106h-74zM611 816h62q44 0 75 131h-81q-15 0 -56 -131zM380 797h6q10 0 88 7l49 137h-74q-39 0 -50 -69q-19 -60 -19 -75zM935 766h236q38 0 38 -504q6 0 6 -187q0 -44 -44 -44q-44 -6 -124 -6h-567q-48 0 -355 -25q-13 28 -13 81
v174q-12 386 -12 405q0 6 -7 50q93 31 842 56z" />
    <glyph glyph-name="three" unicode="3" horiz-adv-x="1649" 
d="M767 1433v-18q-128 -66 -194 -241v-18l9 -47l-18 -9h-46q-49 0 -157 -9v9q60 185 240 287q127 46 166 46zM934 1433h9q124 -20 231 -120l111 -176q-34 -18 -74 -18q-11 0 -83 148q-110 124 -194 148v18zM841 1424q111 -126 111 -250v-37q0 -13 -27 -28h-148
q-28 10 -28 56q50 259 92 259zM888 1424h9q259 -129 259 -296l-19 -9h-148q-18 0 -18 18v56q0 82 -83 231zM786 1415q0 -10 9 -10q-55 -118 -74 -296l-92 -9h-10q-18 0 -18 19v46q0 118 185 250zM1276 1109q209 -79 370 -194v-9q-10 0 -10 -9q-114 9 -120 9
q-1413 -46 -1507 -46v18q0 50 361 194q562 28 656 28h120q51 0 130 9zM1590 888h37q19 -3 19 -19q-127 -296 -509 -296h-656q-51 0 -130 -9q-351 143 -351 268q9 0 9 9zM573 555q28 0 65 -10q184 10 323 10h296q19 -3 19 -19q-91 -240 -167 -240q148 -230 148 -268v-10h-9
q-13 0 -203 241q-167 -15 -167 -65q0 -194 -37 -194l-18 28q-9 162 -9 203h-10q-38 0 -175 28q-154 -209 -194 -241h-10v10q0 34 130 268q-185 119 -185 240q18 9 28 9q86 0 175 10z" />
    <glyph glyph-name="four" unicode="4" horiz-adv-x="2152" 
d="M511 1450q292 0 582 -276q81 -112 91 -112q156 194 378 194q247 0 337 -245v-92q0 -184 -173 -276q143 -132 265 -132q34 0 143 20v-10q-101 -162 -255 -204q-83 -246 -245 -246q-13 -10 -72 -10h-10q-175 0 -592 92q-78 -153 -194 -153h-31q-163 0 -235 245v20
q0 266 256 266h132v10q-60 60 -214 358q-102 102 -215 102h-10q31 -75 31 -92q-71 -164 -174 -164h-10q-296 33 -296 256q0 337 511 449zM572 1409v-10q211 0 561 -500q31 110 31 132q-175 260 -459 347q-29 0 -123 31h-10zM41 990q0 -178 235 -214h20q79 0 143 112v41
q-14 102 -102 102h-31l-41 -41h-20l-10 51q57 133 163 133q282 0 398 -316q321 -526 654 -603h82q88 0 194 41v10q-327 0 -582 286q-115 268 -399 633q-136 133 -306 133h-82q-211 0 -306 -276q-10 -38 -10 -92zM735 1287q189 -200 378 -562h10v82q-81 205 -327 449l-51 31
h-10zM1154 756q0 -300 459 -399q67 -10 133 -10h20v10q-142 0 -377 245q-51 71 -51 133v51q0 125 163 184h20q21 -3 21 -20q-72 -74 -72 -123q64 -143 215 -143q153 0 184 245q-32 286 -286 286h-62q-278 0 -357 -337q-10 -72 -10 -122zM286 1052l20 10h21q329 -24 408 -204
q151 -350 419 -501h10q-412 409 -429 562q-109 194 -214 194q0 16 -92 31q-143 -13 -143 -92zM1368 756q0 -188 337 -348q130 -30 194 -30h21q24 20 40 20v10q-382 0 -520 307l-11 71v31q0 18 31 92h-10q-82 -47 -82 -153zM1470 745v-10q26 -99 133 -184q143 -102 276 -102
h61l102 10v11q-210 0 -367 183q-99 0 -205 92zM541 337v-82q0 -167 184 -224h20q184 38 184 143v71q-20 92 -102 92q-56 0 -92 -92q31 0 31 -20v-11q0 -20 -21 -20h-10q-15 0 -30 31v20q0 93 132 133q88 -67 552 -194h163q142 0 245 102v10q-170 -82 -296 -82q-79 0 -245 72
q-91 0 -327 194q-17 10 -51 10h-112q-225 0 -225 -153zM960 286l10 -72v-30q383 -82 511 -82h81q167 0 245 123v10h-10q-141 -92 -235 -92h-102q-140 0 -500 143z" />
    <glyph glyph-name="five" unicode="5" horiz-adv-x="1755" 
d="M810 1493h10v-10q0 -53 -39 -78h-10v10q12 73 39 78zM693 1483q19 -32 19 -58v-10h-9q-30 10 -30 59zM927 1405q0 -10 10 -10q-16 -44 -59 -68q-19 0 -19 20zM625 1376q9 0 48 -49q0 -19 -19 -19q-36 18 -49 58zM761 1376q26 0 312 -332q0 -32 322 -58q196 -51 196 -127
q-24 -88 -215 -186q-72 0 -127 -127q0 -29 88 -253v-39q0 -53 -39 -69h-29q-60 0 -381 147h-29q-35 0 -117 -176h-10q29 -77 29 -97h-10q-29 0 -29 58h-19q0 -39 -59 -49q10 -19 10 -29q-15 -39 -29 -39l-10 20v19l19 29v10q-127 0 -127 332q0 127 -9 127l9 19
q-30 109 -361 313q-39 33 -39 78v19q58 78 361 78h118q87 0 87 127q0 205 88 205zM732 1337l-59 -293q0 -27 -449 -49q0 -11 -87 -29v-10q0 -67 283 -234q117 -101 117 -205q0 -419 97 -419h30q134 239 175 263h59q303 -146 400 -146l10 48v20q-88 216 -88 283q0 76 293 224
q50 67 58 69q0 90 -488 136q-307 352 -341 352q-10 0 -10 -10zM566 1288h78q20 -3 20 -19l-20 -10h-78q-20 0 -20 19zM1015 1278l10 -19q-66 -29 -78 -29l-10 19q45 29 78 29zM1093 1200l10 -19q-14 0 -69 -39q-19 0 -19 19q55 39 78 39zM595 1171q24 -6 49 -68l-19 -10
l-49 68zM468 1151h20q0 -24 19 -48v-10q0 -20 -19 -20l-39 69zM1142 1142h29q-10 -59 -29 -59h-10v10zM283 1132q20 -32 20 -59l-20 -9q-20 40 -20 58zM371 1132l29 -59l-19 -9l-30 39v9q3 20 20 20zM1308 1132h19v-10q-6 -88 -29 -88q-10 19 -10 30zM185 1122l30 -58
l-20 -10q-14 0 -29 29v20q3 19 19 19zM1405 1112q10 -18 10 -29q-10 -58 -29 -58q-10 19 -10 29q10 58 29 58zM68 1093h30q0 -27 19 -59l-19 -9q-30 9 -30 58v10zM1513 1083l9 -19q-33 -78 -48 -78l-10 19v10q37 68 49 68zM1630 995q19 -3 19 -19l-68 -49h-10v10q0 14 59 58
zM20 937h39q19 -3 19 -20v-9h-58q-20 0 -20 19zM1659 878h78v-9q0 -20 -20 -20h-58q-20 0 -20 20zM127 849q19 -3 19 -20q-35 -19 -78 -19h-9v19zM185 810h20v-10q0 -12 -59 -49q-19 0 -19 20q9 0 58 39zM1610 781q49 -13 49 -30l-20 -9q-48 12 -48 29zM1503 742h19
q69 -38 69 -49v-10h-30q-58 34 -58 49v10zM293 712l10 -19l-40 -29h-9v19q0 15 39 29zM1395 664q41 -14 59 -49l-20 -10q-48 26 -48 39zM410 634l10 -19q-10 0 -59 -39h-10v19q20 39 59 39zM1317 586q59 -23 59 -40l-20 -9q-58 23 -58 39zM468 507v-29l-68 -10v20zM1347 478
h39v-10q0 -19 -59 -29l-10 20zM1366 390h49q19 -3 19 -19l-19 -10h-49q-19 0 -19 20zM420 361h39q19 -3 19 -19q-60 -20 -78 -20l-10 20zM927 293l10 -20v-19q0 -20 -20 -20l-9 20v19q3 20 19 20zM1356 283h10q88 -20 88 -49l-20 -10q-78 34 -78 49v10zM410 263h68v-29h-88
v10q3 19 20 19zM1044 234l10 -19v-10q0 -14 -29 -29l-10 19q15 39 29 39zM820 215q19 0 39 -69l-20 -9l-39 58q3 20 20 20zM1142 205l9 -20v-48h-29v48q3 20 20 20zM1347 185h19q39 -19 39 -58h-19q-14 0 -39 49v9zM1249 146l10 -19v-29q0 -20 -20 -20l-9 20v29q3 19 19 19z
M507 127l10 -20q-35 -29 -68 -29l-10 20zM566 88l10 -20q-34 -58 -49 -58h-20v10q50 68 59 68z" />
    <glyph glyph-name="six" unicode="6" horiz-adv-x="1671" 
d="M890 1468q162 0 185 -96q0 -15 59 -60q15 -48 15 -66v-126q0 -45 45 -45h59q56 0 193 59h59q136 0 156 -200q-74 -397 -237 -660q-129 -177 -282 -222q-161 -52 -267 -52h-22q-121 0 -327 163q-41 0 -259 230q-267 389 -267 578v8q0 155 89 200q82 104 163 104h37
q40 0 156 -104q38 -22 74 -22h22q18 15 74 192q92 119 275 119zM638 1290q65 -106 133 -319q35 -44 59 -44q8 0 8 7l37 -7q61 0 148 148q39 60 52 193q-15 163 -141 163h-59q-175 0 -215 -82q-15 -59 -22 -59zM1097 1283q0 -232 -200 -401q8 0 8 -7h-8q-154 0 -200 230
q-49 130 -82 141h-7q-52 -180 -96 -408q12 -16 22 -104l15 -7l37 7q19 -37 29 -37h8l22 15q15 0 15 -30h7l23 15h14q8 0 23 -30l37 23h14q15 0 15 -23h15q0 23 15 23h22l22 -15q0 10 23 22h15l14 -7q4 29 23 29q14 0 14 -22h15q18 59 37 59h60q2 37 22 37q13 -7 30 -7
q0 30 37 30v7q0 19 -15 67l7 29l-44 364h-8zM30 993v-81q100 -294 281 -519q182 -177 364 -289q58 -67 155 -67h37q410 0 579 326q185 417 185 571q0 146 -141 171h-37l-200 -67h-96q0 -26 52 -237q0 -120 -245 -245q-97 -24 -97 -30q-269 0 -355 104q-52 29 -52 111l81 371
q-77 0 -230 126l-44 8h-15q-222 -56 -222 -253zM334 1194h14q15 -3 15 -15q0 -15 -15 -15h-14q-15 0 -15 15q2 15 15 15zM245 1171q22 -7 22 -44l-22 -15q-15 0 -23 45zM148 1097q15 -2 15 -15v-7q0 -38 -22 -44q-15 29 -15 51zM1431 1082h7q15 -2 15 -14t-29 -30
q-15 0 -15 15q11 29 22 29zM1527 1038q15 -2 15 -15q-14 -34 -30 -37l-7 15v15q0 10 22 22zM111 927h15q15 -3 15 -15q0 -11 -22 -22h-8q-15 0 -15 15v7q3 15 15 15zM1535 919q29 -12 29 -52v-7q0 -15 -14 -15h-15l-15 8l7 14v8l-15 22q0 11 23 22zM1142 771v-22q15 0 15 15
v7h-15zM185 749h15q15 -2 15 -15v-7q0 -12 -30 -30q-14 0 -14 15v22q2 15 14 15zM497 727v-8q0 -108 274 -156h15q226 0 326 141v8l-15 7h-7q0 -22 -15 -22h-7l-30 22q-57 -74 -96 -74q0 7 -8 7q0 -10 -22 -22h-7q-15 0 -15 15l-30 -7l-37 7q0 -30 -22 -30h-15l-30 37
q-15 -29 -44 -29q-15 34 -30 37q0 -22 -15 -22h-7q-19 0 -22 29h-45q-15 0 -15 23l-37 -8q-28 45 -37 45h-7zM1483 690l15 -23q0 -38 -23 -44q-14 0 -14 15v29q0 11 22 23zM311 578q15 -2 15 -15v-22q0 -10 -22 -22q-15 18 -15 30q11 29 22 29zM1364 437h15l15 -7
q-11 -44 -45 -44l-7 14v15q0 11 22 22zM482 371q11 0 22 -23q0 -10 -22 -22q-11 0 -22 22q0 11 22 23zM1201 274h15q15 0 15 -22q-10 -52 -30 -52h-15q-15 0 -15 15v7q0 40 30 52zM682 230q37 -20 37 -30v-7q0 -15 -15 -15h-7q-30 15 -30 44zM971 185h22v-37q0 -11 -29 -29
h-15q-15 0 -15 14v45z" />
    <glyph glyph-name="seven" unicode="7" horiz-adv-x="1949" 
d="M1103 1447q260 -55 260 -267q0 -128 -183 -274q-53 -65 -140 -239q-14 0 -14 -35q39 0 63 -91q0 -135 -148 -176h-28q-23 0 -105 225q29 35 162 63q7 107 7 148q-274 -127 -373 -127h-28q-281 71 -281 232q0 276 457 478q232 63 351 63zM323 906q0 -133 246 -196h35
q100 0 394 133q7 -14 7 -21q0 -29 -7 -126l14 -8q81 112 126 218q197 159 197 274q-21 106 -63 155q-31 28 -78 49v-7q92 -83 92 -162q0 -214 -309 -260q-114 18 -155 57v-14q0 -8 7 -21q0 -159 -316 -239q-42 14 -42 28v21q0 60 154 91l42 42v14l-35 7h-91q-148 0 -148 78
q33 129 106 168q115 42 161 42q50 -22 50 -56q0 -50 -155 -91q2 -14 14 -14q105 7 155 7q6 0 56 -7v7q-14 46 -14 63v28q0 117 154 211v14h-7q-296 -55 -449 -204q-141 -128 -141 -281zM794 1152q0 -131 168 -154h22q165 0 252 133q15 28 15 77q0 124 -169 176h-7
q-165 0 -246 -133q-35 -65 -35 -99zM1047 1335q133 -41 133 -141v-21q0 -93 -154 -140h-35q-99 61 -99 140v28q39 134 134 134h21zM920 1187q25 -119 99 -119h14q112 35 112 98v35q0 69 -105 99h-7q-113 -30 -113 -113zM429 998q33 -21 105 -21h98q71 0 71 -57v-7
q0 -45 -169 -98q-35 0 -35 -35h28q267 72 267 182v15q0 63 -84 63t-127 -14q-70 19 -70 42v14q0 14 140 63l21 28q0 14 -14 14h-42q-189 -30 -189 -189zM1784 1040h36q31 0 70 -183q-11 0 -28 -28q7 0 7 -7q23 14 42 14q21 -7 21 -42v-7q0 -21 -63 -35q-11 0 -21 28v35
q-24 0 -85 197v7q0 10 21 21zM1799 1012v-14l42 -120h7v7q-20 127 -49 127zM1707 955q73 -52 106 -182v-21q-10 -35 -50 -35h-14q-22 15 -84 140l-14 7h-21q-17 0 -21 -49q42 -104 42 -119v-15q-24 -42 -70 -42q-55 133 -85 155h-7v-21q0 -18 36 -120v-14q0 -56 -78 -56h-7
q-27 0 -98 225q0 33 70 42q0 32 70 49h50q41 56 140 56h35zM1546 836l-36 28h-14q-58 0 -77 -70l-14 -7h-14q0 28 -14 28v-7q58 -190 77 -190h14q10 0 21 21q0 31 -42 134q19 63 35 63q66 0 113 -155h7q14 0 14 15q0 11 -42 119q0 54 56 91q68 0 119 -133q14 0 14 -21h7v21
q-15 147 -126 147h-7q-84 -9 -84 -84h-7zM1244 787q119 -45 119 -141v-21q-24 -126 -119 -126q-141 21 -141 133v35q0 98 141 120zM1131 681v-28q0 -85 84 -112h7v7q-42 0 -56 98v28q0 9 63 43q85 -43 85 -106l-21 -49h7q9 0 28 35v35q0 91 -84 113h-29q-37 0 -84 -64z
M1215 674q0 -28 -21 -28q18 -63 35 -63h29q21 7 21 42q-21 49 -64 49zM836 569v-7q74 -141 98 -169q120 51 120 113v49q-29 56 -70 56h-43q-105 -30 -105 -42zM962 604q78 -12 78 -70v-7q0 -44 -85 -98h-7q-63 85 -63 126q39 49 77 49zM913 548v-14q35 -43 35 -63
q57 0 57 56q0 42 -50 42q-42 -4 -42 -21zM703 562h42q66 -37 91 -126q22 -59 35 -78v-7q-16 -35 -70 -35q-17 1 -91 134h-22q57 -125 57 -162q0 -32 -78 -49q-33 0 -119 232q0 38 155 91zM618 471l-21 14q-13 -7 -21 -7q9 -49 91 -204q43 0 43 28q-57 131 -57 155v14
q0 11 28 28h22q36 0 98 -148h21q0 127 -119 176q-29 0 -85 -56zM471 464h28q105 -167 105 -232v-7q0 -14 -42 -28q-14 7 -21 7q-38 -56 -119 -56q-113 37 -113 70h-7l-7 -70q13 0 42 -50q-9 -56 -49 -56q-68 35 -91 35v-42q0 -26 -78 -35q-94 142 -119 246q0 44 169 84
q42 0 105 -42h7q0 98 134 155q37 0 56 21zM471 429q0 -16 -7 -29l-35 7h-7q-74 0 -106 -105v-42q33 -54 77 -63q-42 46 -42 126q0 63 92 77q84 -29 84 -105v-7q-23 -91 -77 -91v-7h21q40 8 63 56q23 0 35 7q-77 176 -91 176h-7zM386 323q9 -84 36 -84h42q11 0 28 28v28
q-14 63 -35 63h-42q-29 -14 -29 -35zM112 274v-7q113 -9 113 -35v-14q0 -61 -99 -92q-34 41 -56 113q7 13 7 21h-21q-10 0 -21 -21q75 -204 106 -204h21v42q4 42 21 42h7q93 -35 98 -35h14v7q-49 48 -49 57q14 52 14 56q-12 77 -77 77h-7zM84 267v-7h21v7h-21zM112 225
q0 -38 29 -49h21q11 0 28 28v21h-78z" />
    <glyph glyph-name="eight" unicode="8" horiz-adv-x="2130" 
d="M710 1453h20q243 0 391 -345q31 -100 40 -100q224 359 411 359q126 0 126 -173q0 -89 -33 -186h7q305 92 305 173q13 0 13 26h-6q-25 0 -113 -33q-30 13 -33 27q0 79 192 79q73 0 73 -26q-37 -89 -40 -126q-122 -58 -179 -193q0 -99 -33 -99h-7q-24 12 -33 40
q47 141 47 146q-219 0 -412 -418q-444 -538 -444 -551q-11 0 -27 -13q-9 0 -20 20q24 126 73 126q25 5 219 232q239 285 305 478h-6q-190 -53 -372 -166q-91 -113 -126 -113h-6l-14 7q0 49 126 139q157 93 445 225q46 118 46 206q-17 106 -53 106q-228 0 -385 -345
q-59 -73 -99 -73l-7 14v33q0 245 -239 424q-55 27 -106 27h-59q-107 0 -107 -471v-33q0 -70 7 -213h13q29 0 80 60h13q14 -3 27 -33q0 -32 -120 -86q0 -234 179 -458q19 -33 54 -33q30 86 46 86q0 -7 7 -7q-27 -192 -47 -192q-77 7 -225 312q-52 141 -87 265
q-212 -73 -212 -126q-93 -244 -106 -338l-20 -13q-20 0 -33 66l60 192h-7q-46 0 -126 -179l-40 -33q-13 0 -13 13v20q0 96 139 292q-179 26 -179 100q0 19 86 19q-46 48 -46 80v20q0 9 20 20q24 0 132 -100q65 -10 133 -73q5 0 219 100l-7 33v305q0 377 93 451q46 27 80 27z
" />
    <glyph glyph-name="nine" unicode="9" horiz-adv-x="2055" 
d="M1570 1449q476 -115 476 -433q0 -172 -142 -235q-78 -35 -114 -35h-57q-142 86 -142 170l29 93h-7q-127 0 -228 -142q-85 -180 -163 -299q-28 -14 -28 -42h7q38 7 64 7h49q249 -24 249 -192q7 -35 7 -92v-7q-76 -242 -227 -242h-7q-132 0 -214 156q-375 -92 -539 -92h-8
q-234 0 -312 199q-10 71 -50 71q-135 53 -135 99q-21 12 -78 93l14 7q67 -21 121 -21h14q117 0 249 142v7q-171 51 -171 284q0 209 221 298l85 14q257 0 376 -206q191 275 441 356q146 42 220 42zM1499 1414v-7h36v7h-36zM938 1030q0 -40 28 -135h7q241 422 498 497
q21 0 21 15h-14q-261 -55 -405 -206q-86 -86 -135 -171zM391 313q0 -41 248 -64q185 0 512 397q102 136 227 398q100 106 220 128l50 7q111 0 156 -99q15 0 15 -50q0 -37 -22 -43q-26 43 -35 43h-50q-67 0 -85 -106v-15q0 -65 106 -128l29 -7q151 0 234 135q14 28 14 78v29
q0 189 -177 305q-77 43 -142 43h-36q-300 0 -483 -377q-59 -60 -227 -397q-133 -189 -391 -256q-99 -21 -163 -21zM973 838v-120h7q78 191 334 539l78 64h-7q-143 -86 -220 -206q-136 -162 -192 -277zM263 931q0 -202 149 -242h50q177 43 177 142q0 47 -71 128l15 7h21
q80 0 149 -113q14 -26 14 -57v-50q0 -152 -263 -334q-102 -50 -149 -50v-14q393 0 569 270q-15 0 -15 14q36 60 36 142q0 382 -341 448h-50q-211 0 -284 -199q-7 -47 -7 -92zM916 348h8q255 132 419 505q96 191 326 191q5 22 57 22l50 -7v7q-28 78 -121 78h-21
q-181 -41 -234 -128q-85 -201 -278 -462q0 -8 -206 -206zM632 924q50 -73 50 -114q0 -131 -114 -249q-159 -149 -362 -149h-43q1 -10 36 -28h71q256 0 455 291q14 64 14 92q0 117 -107 157zM426 654q-115 -178 -305 -178h-36q0 -21 107 -28h64q174 0 348 198q42 102 42 114
q-99 -106 -220 -106zM632 220h-64q-76 0 -248 78q102 -120 255 -120h100q194 31 369 113q83 22 213 86q121 -56 121 -135q-14 -43 -28 -43h-14q-15 0 -15 14v14q0 15 22 15v7q0 59 -93 92q-92 -33 -92 -85v-93q54 -127 156 -127h43q124 0 178 213v56q0 192 -256 192
q-158 0 -199 -85q-184 -135 -270 -135q-93 -57 -178 -57zM654 142h-64q-139 0 -277 107v-15q70 -135 270 -135q167 0 497 79l42 7v49l8 50q-375 -142 -476 -142z" />
    <glyph glyph-name="colon" unicode=":" horiz-adv-x="557" 
d="M145 167l82 84q15 14 29 14q13 0 31 -16l80 -86q12 -16 12 -29q0 -15 -14 -31l-80 -88q-20 -20 -29 -20q-16 0 -29 14l-88 101q-10 13 -10 26q0 15 16 31zM145 860l82 84q15 14 29 14q13 0 31 -16l80 -86q12 -16 12 -29q0 -15 -14 -31l-80 -88q-20 -20 -29 -20
q-16 0 -29 14l-88 101q-10 13 -10 26q0 15 16 31z" />
    <glyph glyph-name="semicolon" unicode=";" horiz-adv-x="557" 
d="M145 859l82 84q15 14 29 14q13 0 31 -16l80 -86q12 -16 12 -29q0 -15 -14 -31l-80 -88q-20 -20 -29 -20q-16 0 -29 14l-88 101q-10 13 -10 26q0 15 16 31zM238 258q44 0 88.5 -65.5t44.5 -151.5q0 -109 -71 -226.5t-139 -117.5v43q73 43 87 190q0 119 -129 161v42z" />
    <glyph glyph-name="semicolon" unicode="&#x37e;" horiz-adv-x="557" 
d="M145 859l82 84q15 14 29 14q13 0 31 -16l80 -86q12 -16 12 -29q0 -15 -14 -31l-80 -88q-20 -20 -29 -20q-16 0 -29 14l-88 101q-10 13 -10 26q0 15 16 31zM238 258q44 0 88.5 -65.5t44.5 -151.5q0 -109 -71 -226.5t-139 -117.5v43q73 43 87 190q0 119 -129 161v42z" />
    <glyph glyph-name="less" unicode="&#x3c;" 
d="M927 1074l-625 -359l625 -355v-167l-840 481v83l840 484v-167z" />
    <glyph glyph-name="equal" unicode="=" 
d="M87 631h840v-140h-840v140zM87 943h840v-140h-840v140z" />
    <glyph glyph-name="greater" unicode="&#x3e;" 
d="M87 1241l840 -484v-83l-840 -481v167l625 355l-625 359v167z" />
    <glyph glyph-name="question" unicode="?" horiz-adv-x="944" 
d="M411 1433q455 0 455 -100q45 -79 45 -200v-22q0 -295 -289 -500q-19 0 -67 -133l-77 -23h-111q-78 54 -78 167q266 295 266 356q0 33 -88 88h-178q-278 0 -278 112q-11 11 -11 88v23q80 144 411 144zM322 1400v-11h22v11h-22zM156 1255v-22h11v22h-11zM144 1178v-12h23
v12h-23zM311 433h11q22 -3 22 -22l-22 -11h-11v33zM600 433h11v-11q0 -22 -22 -22l-11 22zM455 411h23q133 0 133 -111q-51 -211 -200 -211q-122 76 -122 155v23q0 114 166 144zM267 389q22 -4 22 -22q0 -23 -22 -23q-23 0 -23 23q4 22 23 22zM378 367v-23h11v23h-11z
M667 344h33v-11q0 -22 -22 -22h-11q-23 0 -23 22zM222 255h11q22 -3 22 -22q0 -16 -33 -33h-11q-22 0 -22 22q0 16 33 33zM644 211h34v-22h-34v22zM311 100l11 -22l-22 -11l-11 22zM578 100h22v-22q0 -22 -22 -22q-23 0 -23 22q4 22 23 22zM422 44h33v-22q0 -22 -22 -22h-11
v44z" />
    <glyph glyph-name="at" unicode="@" horiz-adv-x="2019" 
d="M972 622q-83 -10 -151 -80t-68 -199q0 -107 64 -194t183 -87q97 5 126 167v476q-54 -63 -154 -83zM1360 29q-63 1 -100.5 18t-61.5 54q-29 -37 -82 -64.5t-133 -27.5q-144 0 -256.5 100.5t-112.5 233.5q1 87 53 166.5t132.5 115t173.5 49.5q67 16 110 42.5t43 74.5
q-2 69 -41 125t-129 56q-72 0 -121.5 -59t-50.5 -125h-45v159q0 20 72 40q73 20 178 20q109 -2 193.5 -64.5t84.5 -157.5v-589q0 -117 94 -117q185 35 267 191.5t82 382.5q-20 335 -232 540q-197 188 -480 188q-205 0 -392.5 -137.5t-269.5 -355.5q-67 -178 -67 -361
q0 -313 129.5 -511.5t305 -290.5t318.5 -92q274 0 575 208v-75q-263 -184 -571 -184q-240 0 -461 122.5t-343 342t-122 461.5t124 464.5t345.5 342t456.5 119.5q362 0 609 -230t247 -566q0 -270 -176 -439q-175 -168 -346 -170z" />
    <glyph glyph-name="A" unicode="A" horiz-adv-x="1314" 
d="M478 1433h154q147 0 245 -104l104 92h90q221 -71 221 -260v-981q0 -141 -221 -180h-51q-101 0 -155 65q-92 -53 -233 -53h-90q-281 0 -491 401q-51 93 -51 258q0 513 206 646q136 116 272 116zM39 658q0 -357 310 -490l76 -52h194q154 0 258 129h39q10 -90 39 -90h77
q129 0 129 426q14 447 14 568q-37 233 -116 233h-39q-53 0 -143 -104q-95 116 -270 116h-78q-335 0 -464 -348q-26 -208 -26 -388zM568 1161h90q233 -76 233 -347v-78q-44 -362 -362 -362h-38q-174 0 -233 336v116q0 215 310 335zM439 697q35 -272 103 -272h53
q257 60 257 350v26q-43 193 -181 193h-25q-151 0 -207 -297z" />
    <glyph glyph-name="B" unicode="B" horiz-adv-x="1169" 
d="M527 1446h14q279 0 418 -135q61 0 82 -122q0 -54 -82 -230q190 -153 190 -378q-92 -446 -203 -446q0 -114 -595 -135h-13q-324 0 -324 216q0 56 -14 108q14 251 14 446v379q0 270 310 270q0 23 203 27zM216 1365h-67q-108 -122 -108 -311v-40q0 -110 13 -176
q-13 -138 -13 -216q0 -68 13 -473q0 -95 230 -95h40q554 0 554 95q150 0 217 405v54q0 199 -163 324v27q68 173 68 244q0 107 -324 202q-118 14 -203 14h-14q-208 -54 -243 -54zM432 1270q365 -45 365 -175q0 -85 -67 -122h-81q-115 0 -338 -14q-27 71 -27 284q53 27 148 27
zM311 1149q10 -149 27 -149q13 0 13 -13q135 13 203 13h95q108 0 108 108q-85 108 -298 108h-108q-30 0 -40 -67zM487 892q405 -35 405 -284q0 -14 13 -40q-34 -271 -243 -271h-148q-176 0 -176 41v513q0 41 149 41zM378 838q-13 -159 -13 -230v-27q0 -159 40 -243h176
q270 0 270 189v68q0 243 -337 243h-136z" />
    <glyph glyph-name="C" unicode="C" horiz-adv-x="1226" 
d="M585 1429h177q436 -36 436 -245v-27q0 -218 -273 -218h-27q-63 0 -204 68q-161 0 -218 -258q0 -245 300 -245q364 -46 381 -191q13 0 13 -54v-68q-54 -126 -217 -191h-14v14l-27 -14h-14q-13 0 -13 14q-14 0 -14 -14q-626 0 -830 408q-41 145 -41 245v123q0 536 585 653z
M41 708v-82q0 -214 163 -354q195 -177 381 -177h218q14 0 14 -13q141 55 190 163v41q-22 177 -177 177q-149 -14 -258 -14q-131 0 -245 245v68q72 286 272 286h81q132 -27 150 -27h27q151 0 177 190q0 150 -217 177h-232l-286 -95q-258 -177 -258 -585z" />
    <glyph glyph-name="D" unicode="D" horiz-adv-x="1252" 
d="M481 1429q419 0 685 -321q74 -142 74 -233q-58 -485 -219 -715q-182 -160 -685 -160h-190q-117 0 -117 87q-29 73 -29 220q19 1107 102 1107q134 0 379 15zM116 1371q-72 -304 -72 -1021v-58q0 -219 72 -219q205 -29 278 -29q457 0 612 174q116 173 189 643
q0 415 -670 510h-218l-176 -15q0 15 -15 15zM525 1182q350 0 350 -409q0 -299 -190 -394q-67 -38 -320 -72q-29 34 -29 58q0 59 29 699l-15 73q51 45 175 45zM408 1122q0 -186 -29 -699q15 -28 15 -44h14q302 0 365 131q58 79 58 263q0 308 -219 349h-204z" />
    <glyph glyph-name="E" unicode="E" horiz-adv-x="811" 
d="M199 1433h326q241 0 241 -199q0 -136 -184 -170q-124 14 -213 14h-14v-170h14q241 0 241 -199q0 -170 -241 -170h-14v-184h14q89 0 213 14q184 0 184 -199q0 -170 -241 -170h-369q-156 33 -156 241v951q0 241 199 241zM43 1263v-298q0 -126 -15 -284l15 -71
q-15 -134 -15 -255q0 -312 142 -312h426q104 0 128 141q-17 96 -86 142l-99 -14h-184q-29 0 -29 29v212q0 29 185 43q30 38 57 128q-37 141 -100 141l-85 -14h-28q-29 0 -29 29v212q5 29 29 29h184l85 -14q56 0 100 127q-19 156 -128 156h-114q-92 0 -283 -14v14
q-156 -19 -156 -127z" />
    <glyph glyph-name="F" unicode="F" horiz-adv-x="794" 
d="M201 1433h329q244 0 244 -201q0 -137 -186 -172q-125 15 -215 15h-15v-172h15q243 0 243 -201q0 -172 -243 -172v-286q0 -244 -201 -244q-172 0 -172 244v945q0 244 201 244zM43 1261v-301q0 -127 -14 -286l14 -72q-14 -138 -14 -272v-29l28 -43v-29l-14 -86
q0 -56 129 -100q158 19 158 129v373q0 28 186 43q30 38 57 129q-37 143 -100 143l-86 -15h-29q-28 0 -28 29v215q4 29 28 29h187l86 -15q56 0 100 129q-19 158 -129 158h-115q-93 0 -286 -14v14q-158 -19 -158 -129z" />
    <glyph glyph-name="G" unicode="G" horiz-adv-x="1235" 
d="M591 1442h178q440 -36 440 -247v-28q0 -219 -275 -219h-28q-64 0 -206 68q-162 0 -219 -261q42 -247 219 -247h28v28q0 233 192 233q261 -31 261 -233v-344q-55 -126 -220 -192h-13v14l-28 -14h-14q-13 0 -13 14q-14 0 -14 -14q-632 0 -838 412q-41 146 -41 247v124
q0 541 591 659zM41 714v-82q0 -216 165 -357q197 -179 385 -179h219q14 0 14 -14q206 52 206 344q0 167 14 206q-5 50 -124 96q-151 -19 -151 -124v-55l14 -68l-41 -28h-138q-201 0 -274 289v27q73 288 274 288h83q133 -27 151 -27h27q153 0 179 192q0 151 -220 179h-233
l-289 -96q-261 -179 -261 -591z" />
    <glyph glyph-name="H" unicode="H" horiz-adv-x="1094" 
d="M899 1433q169 -42 169 -169q-14 -143 -14 -224v-183l14 -84q-28 -46 -28 -85q5 -323 28 -323q0 -351 -141 -351h-70q-155 33 -155 239v267h-365l14 -28v-99q0 -42 14 -42q0 -351 -140 -351h-70q-155 33 -155 239v941q0 239 197 239q168 -42 168 -169q-14 -143 -14 -224
v-155h141l84 14q23 -14 70 -14h56v323q0 239 197 239zM745 1264v-421l-14 -28l-71 14h-267l-70 -14l-14 28v351l14 84q0 56 -126 99q-155 -19 -155 -127v-295q0 -124 -14 -281l14 -70q-14 -132 -14 -253q0 -309 141 -309h28q126 0 126 141v14q0 26 -14 337l28 14h422v-28
h-28v-113q0 -351 140 -351h28q127 0 127 99q-14 366 -14 576v477l14 85q0 55 -127 98q-154 -19 -154 -127z" />
    <glyph glyph-name="I" unicode="I" horiz-adv-x="401" 
d="M199 1433q170 0 170 -241v-951q0 -208 -156 -241h-71q-142 0 -142 341q28 77 28 397v85q0 205 -28 426q0 184 199 184zM43 1305l14 -99v-482q0 -212 -14 -582q0 -99 127 -99h29q142 0 142 340q0 115 -15 185q15 145 15 227q0 70 -15 496q0 63 -142 99q-95 -17 -141 -85z
" />
    <glyph glyph-name="J" unicode="J" horiz-adv-x="1199" 
d="M976 1443q206 0 206 -371q0 -1017 -151 -1017l-41 -28l-138 42q-183 -69 -234 -69h-96q-443 0 -522 467q47 316 206 316h28q87 0 123 -261q66 -178 165 -178q289 0 289 522v137q-14 188 -14 234q23 206 179 206zM838 1182v-357q0 -523 -316 -523q-220 41 -220 289
q0 69 -68 137h-42q-135 0 -151 -329q99 -163 124 -179q49 -73 234 -165h247q96 0 192 82h42q7 -55 41 -55h82q138 0 138 963q0 343 -151 343q-152 0 -152 -206z" />
    <glyph glyph-name="K" unicode="K" horiz-adv-x="939" 
d="M202 1460q159 -33 159 -145v-289h15q205 405 332 405h58q145 -33 145 -144v-15q0 -88 -376 -462q-44 -88 -44 -102q98 -94 376 -462q29 0 29 -73v-14q0 -130 -173 -145q-174 0 -304 333q-36 0 -43 58h-15v-232q0 -173 -130 -173h-72q-159 34 -159 246v968q0 246 202 246z
M43 1287v-304q0 -128 -14 -289l14 -72q-14 -137 -14 -261q0 -318 144 -318h29q130 0 130 145v29q0 48 -14 246l29 14h14q133 -152 261 -390l101 -29q93 0 130 72v43q0 56 -231 304q0 37 -188 246q73 140 318 376q115 110 115 173v43q-28 73 -159 73q-82 0 -347 -463h-43v304
l14 86q0 57 -130 102q-159 -20 -159 -130z" />
    <glyph glyph-name="L" unicode="L" horiz-adv-x="728" 
d="M199 1438q137 0 171 -185q-28 -221 -28 -427v-86q0 -121 14 -384l100 14h14q242 0 242 -199q0 -137 -185 -171q-214 10 -214 28q-46 -28 -85 -28h-71q-157 33 -157 242v954q0 242 199 242zM43 1296q0 -23 -15 -513q0 -78 15 -199q-15 -81 -15 -228q0 -313 143 -313
q59 0 114 14l57 -14q100 14 171 14l57 -14q56 0 99 128q-16 118 -85 156q-15 0 -43 -14q-97 14 -157 14h-71l-42 -28h-15v14l57 57v840l14 86q0 56 -128 99q-156 -32 -156 -99z" />
    <glyph glyph-name="M" unicode="M" horiz-adv-x="2033" 
d="M784 1442q169 0 294 -167q163 153 350 153q431 0 503 -392q86 -378 86 -461q0 -547 -211 -547h-56q-141 50 -141 280v350q0 392 -181 392q-238 0 -238 -728q0 -294 -168 -294h-14q-168 50 -168 197q-14 43 -14 167v238q0 420 -182 420q-168 0 -168 -169
q-35 -104 -84 -742q-70 -139 -154 -139h-99q-139 0 -139 1008q0 420 197 420h14q37 0 139 -70q167 84 434 84zM294 1275q0 14 -14 14l28 55q-51 42 -97 42h-28q-123 0 -141 -461q0 -883 125 -883h99q126 0 140 728q0 210 125 308l99 14h28q209 0 209 -531v-211
q0 -266 183 -266h28q84 61 84 238v225q0 507 252 545h42q197 -24 197 -406v-392q0 -224 139 -224h42q139 97 139 419q-89 827 -265 827q-157 70 -252 70q-250 0 -378 -182h-28q-70 196 -294 196q-289 0 -462 -125z" />
    <glyph glyph-name="N" unicode="N" horiz-adv-x="1204" 
d="M560 1433h95q360 0 491 -328q41 -168 41 -272q0 -751 -95 -751q-58 -55 -109 -55h-28q-109 56 -109 191v246q0 628 -177 628h-14q-287 0 -287 -519v-136q14 -186 14 -232q-22 -205 -177 -205q-205 0 -205 368q0 1010 150 1010l41 28l137 -41q182 68 232 68zM341 1297h-41
q0 54 -41 54h-82q-136 0 -136 -955q0 -341 150 -341t150 204v355q0 519 314 519q232 0 232 -437v-450q0 -107 68 -164h41q150 0 150 382v478q0 95 -122 259q-65 89 -246 177h-246q-95 0 -191 -81z" />
    <glyph glyph-name="O" unicode="O" horiz-adv-x="1698" 
d="M724 1439q375 -63 608 -152q162 -69 268 -232q89 -183 89 -313q0 -369 -375 -617q-277 -125 -528 -125h-152q-235 0 -473 250q-161 194 -161 447q0 498 572 697q76 18 152 45zM45 706v-36q0 -301 295 -527q200 -107 357 -107q401 0 697 196q176 136 224 331
q26 130 26 179q0 273 -250 464q-349 152 -536 152q0 21 -116 27q-156 0 -420 -152q-277 -184 -277 -527zM813 1126h107q262 0 349 -313q9 -47 9 -89v-9q0 -248 -232 -366q-103 -27 -224 -36q-209 0 -357 250q-27 60 -27 134q0 278 286 420zM483 697q0 -214 241 -313
q33 -18 71 -18h54q384 0 384 367q-39 348 -330 348h-45q-317 0 -366 -312q-9 -50 -9 -72z" />
    <glyph glyph-name="P" unicode="P" horiz-adv-x="1195" 
d="M351 1433q526 0 646 -155q89 0 183 -463q0 -311 -379 -548q-98 -28 -169 -28q-14 0 -14 14l-28 -14h-239q14 -100 14 -113q0 -107 -140 -126h-70q-155 33 -155 239v941q0 253 281 253h70zM42 1278q0 -21 -14 -505q0 -78 14 -197q-14 -80 -14 -225q0 -309 141 -309h42
q112 0 112 98v15l-14 84q21 56 42 56h295q277 0 450 351q28 55 28 155v56q-66 379 -155 379q-98 141 -548 141h-140q-239 0 -239 -99zM520 1124h154q208 0 253 -267q0 -231 -267 -337l-168 -14q-155 0 -155 42v534q0 42 183 42zM407 1082q-42 -86 -42 -253v-28
q0 -74 14 -239h141q351 0 351 253v70q0 197 -281 197h-183z" />
    <glyph glyph-name="Q" unicode="Q" horiz-adv-x="1389" 
d="M723 1433q488 0 631 -657q0 -216 -105 -421v-26q131 -92 131 -184v-14q0 -118 -157 -131h-66q-154 0 -197 79q-14 0 -40 -13q-26 0 -26 13l-131 -13h-132q-367 0 -578 302q-53 163 -53 276v119q0 471 447 591q130 53 276 79zM39 697v-79q0 -206 158 -342
q189 -171 368 -171h171q15 0 145 26q-26 117 -26 158q30 132 131 132h13q40 0 105 -40q106 224 106 408q-180 565 -461 565h-184l-276 -92q-250 -171 -250 -565zM578 1025h79q224 -31 224 -223v-132q-31 -223 -224 -223h-79q-193 0 -262 276v26q69 276 262 276zM460 736
q41 -236 210 -236h66q105 67 105 249q-23 237 -171 237q-155 0 -210 -250zM894 289q52 -161 237 -250h13q82 27 92 66v40q0 87 -211 236h-65q-40 -10 -66 -92z" />
    <glyph glyph-name="R" unicode="R" horiz-adv-x="1208" 
d="M367 1438q527 0 648 -156q88 0 184 -464q0 -228 -241 -451v-15q128 -125 128 -196v-16q0 -126 -170 -140q-172 0 -254 253l-99 -14h-196q14 -100 14 -112q0 -108 -142 -127h-69q-156 33 -156 239v395q0 205 -14 466q0 324 225 324q50 14 142 14zM57 1282q0 -21 -15 -506
q0 -78 15 -197q-15 -81 -15 -227q0 -310 142 -310h41q113 0 113 98v16l-14 83q21 57 43 57h295q168 -235 184 -239l70 -15q91 0 127 71v43q0 58 -140 196v15q239 207 239 437v55q-66 382 -155 382q-98 140 -550 140h-141q-239 0 -239 -99zM535 1128h156q209 0 253 -269
q0 -230 -267 -337l-169 -14q-156 0 -156 41v537q0 42 183 42zM423 1086q-42 -86 -42 -254v-28q0 -74 14 -241h140q354 0 354 255v71q0 197 -283 197h-183z" />
    <glyph glyph-name="S" unicode="S" horiz-adv-x="1349" 
d="M674 1442h28q416 0 487 -225q10 -15 10 -47q-17 -149 -150 -149q-57 0 -375 75q-150 -7 -150 -38v-19q0 -73 197 -103q471 -119 552 -271q66 -86 66 -187q0 -315 -375 -450q-142 -28 -271 -28q-420 0 -534 75q-159 130 -159 187q0 157 243 178q44 0 412 -65h57
q131 0 131 74q0 100 -169 132q-505 138 -505 206q-94 109 -94 224q0 169 262 356q166 75 337 75zM122 1002q0 -266 421 -318q337 -101 337 -188q10 -15 10 -47q-22 -121 -169 -121q-127 0 -459 65h-47q-168 -28 -168 -121t234 -197q117 -19 197 -19h318q366 0 487 309
q9 83 9 103q0 333 -693 440q-121 40 -121 122v47q0 45 177 65q17 0 347 -65q35 -10 84 -10q66 29 66 94q0 191 -309 225q-46 9 -122 9h-75q-387 0 -515 -328z" />
    <glyph glyph-name="T" unicode="T" horiz-adv-x="1005" 
d="M497 1433q170 0 170 -241v-85l28 14h57q241 0 241 -199q-33 -156 -142 -156h-184v-525q0 -208 -156 -241h-71q-142 0 -142 341q28 77 28 397v28l-28 -14h-57q-241 0 -241 199q33 156 142 156h170l-14 127q15 199 199 199zM341 1305l14 -99v-114q0 -28 -29 -28h-99l-85 14
q-56 0 -99 -127q16 -118 85 -156q15 0 42 14q185 -11 185 -43v-42q0 -211 -14 -568q0 -113 127 -113h29q141 0 141 340q0 82 -14 227q0 199 85 199h57l85 -14q56 0 100 127q-17 118 -86 156q-15 0 -42 -14q-199 10 -199 43v156q0 103 -142 127q-95 -17 -141 -85z" />
    <glyph glyph-name="U" unicode="U" horiz-adv-x="1222" 
d="M989 1442q206 0 206 -371q0 -1016 -151 -1016l-41 -28l-138 42q-183 -69 -233 -69h-96q-362 0 -495 330q-41 170 -41 274q0 756 96 756q58 55 110 55h27q110 -56 110 -193v-247q0 -632 179 -632h14q288 0 288 522v138q-14 187 -14 233q23 206 179 206zM851 1181v-357
q0 -522 -315 -522q-234 0 -234 440v453q0 108 -69 165h-41q-151 0 -151 -385v-481q0 -96 124 -261q65 -89 247 -178h247q96 0 192 82h42q7 -55 41 -55h82q138 0 138 962q0 343 -151 343q-152 0 -152 -206z" />
    <glyph glyph-name="V" unicode="V" horiz-adv-x="1715" 
d="M141 1431q16 0 16 -16l31 16h63q119 0 408 -525l204 -286q493 811 565 811h95q15 0 15 -16l32 16q93 -57 141 -191q0 -86 -361 -604q-293 -438 -330 -557q-106 -79 -157 -79h-15q-144 0 -220 238q-42 2 -220 382q-42 0 -330 445q-34 0 -78 175q48 134 141 191zM47 1240
q0 -44 157 -238q0 -14 549 -891q58 -47 110 -47q120 0 314 429q79 75 424 652q63 16 63 95q-25 82 -157 143q-127 0 -188 -159q-12 0 -393 -588l-63 -64h-15q-90 76 -440 652q-100 159 -188 159h-16q-132 -61 -157 -143z" />
    <glyph glyph-name="W" unicode="W" horiz-adv-x="2030" 
d="M1778 1442h98q140 0 140 -1008q0 -420 -196 -420h-14q-38 0 -140 70q-167 -84 -434 -84q-169 0 -294 168q-164 -154 -350 -154q-431 0 -504 392q-84 377 -84 462q0 546 210 546h56q140 -50 140 -280v-350q0 -392 182 -392q238 0 238 728q0 294 168 294h14
q168 -51 168 -196q14 -43 14 -168v-238q0 -420 182 -420q168 0 168 168q35 105 84 742q70 140 154 140zM1386 350h-28q-210 0 -210 532v210q0 266 -182 266h-28q-84 -61 -84 -238v-224q0 -508 -252 -546h-42q-196 24 -196 406v392q0 224 -140 224h-42q-140 -97 -140 -420
q89 -826 266 -826q158 -70 252 -70q250 0 378 182h28q70 -196 294 -196q289 0 462 126q0 -14 14 -14l-28 -56q51 -42 98 -42h28q122 0 140 462q0 882 -126 882h-98q-126 0 -140 -728q0 -210 -126 -308z" />
    <glyph glyph-name="X" unicode="X" horiz-adv-x="1138" 
d="M177 1442q172 0 309 -324q58 -29 58 -88h30q209 412 338 412h59q147 -34 147 -147v-15q0 -89 -382 -471q-44 -85 -44 -103q99 -96 382 -471q30 0 30 -73v-15q0 -132 -177 -147q-177 0 -309 338q-37 0 -44 59h-30q-156 -284 -235 -368q-68 -29 -147 -29q-147 34 -147 147
v15q0 71 235 324q0 36 177 235q-85 136 -412 500q-15 26 -15 59v15q0 132 177 147zM44 1324v-44q0 -85 339 -397q0 -9 103 -162l-427 -530v-73q28 -74 162 -74q94 0 220 294l118 133q136 -154 265 -397l103 -30q95 0 132 74v44q0 56 -235 309q0 38 -191 250q75 143 323 383
q118 112 118 176v44q-28 74 -162 74q-78 0 -338 -442h-15q-297 442 -338 442h-44q-96 0 -133 -74z" />
    <glyph glyph-name="Y" unicode="Y" horiz-adv-x="1270" 
d="M198 1433q192 0 346 -362q65 -33 65 -99h33q234 461 379 461h66q165 -38 165 -165v-16q0 -97 -412 -511v-461q0 -280 -231 -280q-171 0 -197 231v461q0 69 -379 461q-33 54 -33 99v16q0 149 198 165zM49 1301v-49q0 -96 379 -445l50 -82v-461l-17 -99q0 -65 148 -116
q182 23 182 149v428l-17 115q428 446 428 478v82q-32 83 -181 83q-87 0 -379 -495h-16q-332 495 -379 495h-49q-107 0 -149 -83z" />
    <glyph glyph-name="Z" unicode="Z" horiz-adv-x="1305" 
d="M295 1430h737q251 0 251 -206q0 -71 -369 -472l-309 -383h457q177 0 177 -133v-74q-34 -162 -251 -162h-737q-251 0 -251 206q0 83 575 694l133 162h-487q-177 0 -177 133v73q34 162 251 162zM88 1224q0 -133 89 -133q173 15 251 15h309q30 -5 30 -29v-15l-708 -811
q0 -45 -15 -45q20 -162 133 -162h310q131 0 295 -15q53 15 162 15v-15q209 0 251 133v44q0 133 -104 133q-150 -15 -236 -15h-280q-29 0 -29 30v15q0 9 678 811q0 44 15 44q-20 162 -133 162h-310q-131 0 -295 15q-53 -15 -162 -15v15q-209 0 -251 -133v-44z" />
    <glyph glyph-name="bracketleft" unicode="[" horiz-adv-x="758" 
 />
    <glyph glyph-name="backslash" unicode="\" horiz-adv-x="569" 
 />
    <glyph glyph-name="bracketright" unicode="]" horiz-adv-x="758" 
 />
    <glyph glyph-name="asciicircum" unicode="^" 
 />
    <glyph glyph-name="underscore" unicode="_" horiz-adv-x="1024" 
d="M0 -100h1024v-60h-1024v60z" />
    <glyph glyph-name="grave" unicode="`" horiz-adv-x="489" 
d="M102 1446q22 -47 22 -74h13l23 35q83 22 100 22q9 -4 14 -4v-5q-24 -35 -62 -35q0 -16 -9 -26q44 -22 101 -66q0 -10 13 -40l9 5q9 -1 9 -9v-13q0 -22 -14 -26q-29 66 -56 66q0 9 -14 9l-8 -5l-9 5q-8 -5 -18 -5q-9 5 -13 5v-9q71 -97 123 -237q0 -14 22 -66
q35 -102 35 -224q5 0 22 -110l-5 -52q5 -31 5 -35q-5 -91 -13 -145q12 -62 22 -70v-9q0 -10 -61 -22h-9q-24 0 -35 17v5q39 134 39 206v5q0 442 -145 679h-4v-4q4 -8 4 -17l-8 -5q-8 5 -18 5q-5 -44 -9 -44l4 -9v-9q0 -8 -8 -8h-9q-19 0 -27 79h-4l-31 -40q5 -31 5 -35
l-5 -9q9 -19 9 -57l-9 -5h-4q-10 2 -26 40q-17 0 -17 9v4q0 5 4 5q-4 8 -4 13q0 19 8 39l-4 22l4 18q-4 8 -4 17l13 22v27q-11 0 -22 -40h-9l-18 13q-8 -17 -8 -48v-57q0 -9 -9 -9t-18 44q-18 0 -26 22q14 31 14 61q-5 9 -5 14q19 0 35 52q66 8 66 31q4 8 4 13
q-70 14 -70 22v5q12 21 40 21q0 26 65 26zM264 270h6q13 -2 13 -13l-13 -6h-6v19zM435 270h6v-6q0 -13 -13 -13l-7 13zM349 257h13q79 0 79 -66q-30 -124 -118 -124q-73 44 -73 91v14q0 68 99 85zM238 244q12 -2 12 -13q0 -14 -12 -14q-14 0 -14 14q3 13 14 13zM303 231v-14
h7v14h-7zM474 217h20v-6q0 -13 -13 -13h-7q-13 0 -13 13zM211 166h7q13 -3 13 -14q0 -10 -20 -20h-7q-13 0 -13 14q0 9 20 20zM461 139h20v-13h-20v13zM264 73l6 -13l-13 -7l-7 14zM421 73h14v-13q0 -13 -14 -13q-13 0 -13 13q2 13 13 13zM329 40h20v-13q0 -13 -13 -13h-7
v26z" />
    <glyph glyph-name="a" unicode="a" horiz-adv-x="1319" 
d="M481 1442h156q147 0 246 -104l104 91h91q221 -71 221 -260v-987q0 -143 -221 -182h-52q-102 0 -156 65q-92 -52 -233 -52h-91q-284 0 -494 403q-52 93 -52 260q0 515 208 649q136 117 273 117zM39 663q0 -360 312 -494l78 -52h195q155 0 259 130h39q9 -91 39 -91h78
q130 0 130 429q13 450 13 571q-37 234 -117 234h-39q-52 0 -143 -104q-96 117 -272 117h-78q-338 0 -468 -351q-26 -208 -26 -389zM572 1169h91q233 -77 233 -351v-78q-44 -363 -363 -363h-39q-175 0 -234 338v116q0 216 312 338zM442 702q36 -273 104 -273h52
q259 60 259 350v26q-42 195 -181 195h-26q-152 0 -208 -298zM482 1446h156q148 0 248 -104l104 91h91q222 -71 222 -261v-990q0 -143 -222 -182h-52q-102 0 -156 65q-92 -52 -235 -52h-91q-284 0 -495 404q-52 93 -52 260q0 517 208 652q137 117 274 117zM130 1185
q65 -3 65 -39v-13q0 -18 -39 -39h-13l-52 39q-42 -105 -52 -390l39 26h13q19 0 39 -39v-14q0 -18 -39 -39h-13l-39 26v-26q0 -325 248 -482h13l-13 26v13q0 19 39 40h13q18 0 39 -40v-13q0 -39 -52 -39v-13q39 0 104 -52h195q156 0 261 131h39q8 -92 39 -92h78
q130 0 130 430q13 452 13 573q-37 235 -117 235h-39q-53 0 -143 -104q-97 117 -274 117h-78q-273 0 -404 -222zM469 1394h13q19 0 39 -39v-13q0 -19 -39 -39h-13q-19 0 -39 39v13q0 19 39 39zM703 1316h13q19 0 40 -39v-13q0 -19 -40 -39h-13q-18 0 -39 39v13q0 18 39 39z
M1029 1251h13q19 0 39 -39v-14q0 -18 -39 -39h-13q-19 0 -39 39v14q0 18 39 39zM352 1225h13q18 0 39 -40v-13q0 -18 -39 -39h-13q-19 0 -39 39v13q0 19 39 40zM573 1172h91q235 -77 235 -351v-78q-45 -365 -365 -365h-39q-175 0 -234 338v118q0 216 312 338zM899 1146h13
q19 0 39 -39v-13q0 -18 -39 -39h-13q-19 0 -39 39v13q0 19 39 39zM443 703q36 -273 104 -273h52q261 60 261 352v26q-43 195 -183 195h-26q-152 0 -208 -300zM1068 990h13q19 0 39 -39v-13q0 -19 -39 -39h-13q-19 0 -39 39v13q0 19 39 39zM169 951h13q19 0 39 -39v-13
q0 -19 -39 -39h-13q-18 0 -39 39v13q0 19 39 39zM977 769h13q19 0 39 -39v-14q0 -18 -39 -39h-13q-19 0 -39 39v14q0 18 39 39zM221 586h13q19 0 40 -39v-13q0 -19 -40 -39h-13q-18 0 -39 39v13q0 19 39 39zM1081 573h13q19 0 39 -39v-13q0 -19 -39 -39h-13q-18 0 -39 39v13
q0 19 39 39zM834 495h13q18 0 39 -39v-13q0 -19 -39 -39h-13q-19 0 -39 39v13q0 19 39 39zM182 443h13q19 0 39 -39v-13q0 -19 -39 -39h-13q-18 0 -39 39v13q0 19 39 39zM508 352h13q19 0 39 -39v-13q0 -19 -39 -39h-13q-19 0 -39 39v13q0 18 39 39zM1003 326h13
q19 0 39 -39v-13q0 -19 -39 -40h-13q-19 0 -39 40v13q0 18 39 39zM703 248h13q19 0 40 -40v-13q0 -18 -40 -39h-13q-18 0 -39 39v13q0 19 39 40z" />
    <glyph glyph-name="b" unicode="b" horiz-adv-x="1142" 
d="M521 1429h13q276 0 414 -134q60 0 80 -120q0 -53 -80 -227q187 -151 187 -374q-90 -440 -200 -440q0 -113 -588 -134h-13q-321 0 -321 214q0 55 -13 107q13 247 13 440v374q0 267 308 267q0 23 200 27zM214 1349h-67q-107 -120 -107 -307v-40q0 -109 13 -174
q-13 -136 -13 -214q0 -66 13 -467q0 -94 227 -94h41q547 0 547 94q130 0 187 280v14h-13q-98 -294 -321 -294q-138 -13 -227 -54q-181 27 -347 27q-54 70 -54 147q0 60 14 80l-14 80q14 360 14 575v213q0 64 360 161h40q65 0 174 -54l27 14q29 -24 133 -41q0 -10 107 -93
v-94q0 -78 -67 -160q172 -214 187 -334q-13 -72 -13 -120v-40h13l14 94v53q0 197 -160 321v26q66 170 66 241q0 106 -320 200q-117 13 -201 13h-13q-206 -53 -240 -53zM427 1349v-13h121v13h-121zM507 1309v-14h54v14h-54zM574 1295v-13h40v13h-40zM280 1255v-26
q53 26 147 26q361 -44 361 -173q0 -83 -67 -120h-80q-113 0 -334 -14q0 14 -13 14v-40q280 13 280 26q24 -13 54 -13h120q18 0 67 67v13q0 254 -321 254q0 13 -120 13h-67q-27 -4 -27 -27zM761 1269q0 -13 120 -94v14q-73 80 -120 80zM134 1202v-80h13q0 37 67 120v13h-14
q-61 -25 -66 -53zM227 1162v-80h13q0 48 14 120q-27 0 -27 -40zM307 1135q11 -147 27 -147q13 0 13 -13q134 13 201 13h93q107 0 107 107q-84 107 -294 107h-107q-30 0 -40 -67zM788 1202v-13q4 -27 27 -27v13q0 27 -27 27zM908 1202v-67h14v67h-14zM267 1162v-54
q13 -70 13 -133h14v53q-14 70 -14 134h-13zM841 1162v-160h14q0 30 13 53l-13 27q13 23 13 53q0 27 -27 27zM160 1122l-13 -67v-40h13q0 40 14 93v14h-14zM187 1082q-13 -117 -13 -134l13 -93h13v227h-13zM801 948v-13h27v40q-27 -4 -27 -27zM227 935v-120h13v120h-13z
M307 895q-13 -102 -53 -227q0 -441 147 -441l66 -13q0 26 227 53v-13q241 90 241 213v54l-40 133q13 26 13 40q-98 201 -267 201q-50 13 -120 13q-193 -13 -214 -13zM735 908v-13l93 -14v27h-93zM868 908v-27q31 -80 54 -80v14q-41 66 -41 93h-13zM481 881q400 -34 400 -280
q0 -14 14 -40q-34 -267 -241 -267h-147q-173 0 -173 40v507q0 40 147 40zM160 855v-134h14v134h-14zM815 855q0 -19 40 -40v40h-40zM374 828q-13 -157 -13 -227v-27q0 -157 40 -240h173q267 0 267 187v67q0 240 -334 240h-133zM948 815v-14q0 -19 40 -40v14q0 19 -40 40z
M227 761v-67h13l14 94q-27 -4 -27 -27zM922 748v-13q40 -142 40 -214h13v93q-40 126 -40 134h-13zM975 721v-13l13 -67h14v40q-14 26 -14 40h-13zM134 681q-14 -73 -14 -107v-67h14q0 41 26 174h-26zM1002 628v-94h13v94h-13zM187 614q0 -187 -27 -187l14 -66v-94
q0 -20 53 -40q-27 160 -27 387h-13zM1015 507l-27 -93v-40h14q0 12 26 107v26h-13zM227 467v-66h13v66h-13zM134 401v-121h13v121h-13zM948 361q0 -71 -240 -174v-13h27q227 66 227 173v14h-14zM267 307v-93q4 -27 27 -27h13q-27 62 -27 120h-13zM708 240v-13h13
q44 27 67 27v13h-13q-44 -27 -67 -27zM120 240v-13q27 -80 54 -80h93v13q-133 0 -133 80h-14zM321 227v-13q71 -27 80 -27h26v13q-40 0 -93 27h-13zM494 214v-14q67 0 67 -13q43 27 67 27v13h-14q-49 -13 -120 -13zM187 214v-14q14 0 40 -13h27v13q-30 0 -54 14h-13z
M307 160v-13h94v13h-94zM548 160v-13h26v13h-26z" />
    <glyph glyph-name="c" unicode="c" horiz-adv-x="1213" 
d="M587 1433h177q437 -36 437 -246v-27q0 -218 -273 -218h-27q-64 0 -205 68q-162 0 -218 -259q0 -246 300 -246q365 -46 382 -191q14 0 14 -55v-68q-55 -126 -219 -191h-13v14l-28 -14h-13q-14 0 -14 14q-14 0 -14 -14q-628 0 -832 409q-41 146 -41 246v123q0 538 587 655z
M41 710v-82q0 -214 164 -355q195 -177 382 -177h218q14 0 14 -14q141 56 191 164v41q-22 177 -177 177q-150 -14 -260 -14q-131 0 -245 246v68q72 287 272 287h82q133 -27 151 -27h27q151 0 177 191q0 150 -218 177h-232l-287 -95q-259 -178 -259 -587zM764 1337h14
q20 0 41 -40v-14q0 -20 -41 -41h-14q-19 0 -41 41v14q0 19 41 40zM382 1283h14q19 0 41 -41v-14q0 -19 -41 -41h-14q-19 0 -41 41v14q0 20 41 41zM587 1201h13q20 0 41 -41v-14q0 -19 -41 -41h-13q-20 0 -41 41v14q0 20 41 41zM164 1092h13q20 0 41 -41v-14q0 -19 -41 -41
h-13q-20 0 -41 41v14q0 19 41 41zM355 1078h13q20 0 41 -41v-13q0 -20 -41 -41h-13q-20 0 -41 41v13q0 20 41 41zM164 873h13q20 0 41 -40v-14q0 -20 -41 -41h-13q-20 0 -41 41v14q0 19 41 40zM109 641h14q19 0 41 -41v-13q0 -20 -41 -41h-14q-19 0 -41 41v13q0 20 41 41z
M287 628h13q20 0 41 -41v-14q0 -19 -41 -41h-13q-20 0 -41 41v14q0 19 41 41zM205 478h13q20 0 41 -41v-14q0 -20 -41 -41h-13q-20 0 -41 41v14q0 19 41 41zM409 450h14q20 0 41 -41v-13q0 -20 -41 -41h-14q-19 0 -41 41v13q0 20 41 41zM655 396h14q19 0 41 -41v-14
q0 -19 -41 -41h-14q-20 0 -41 41v14q0 19 41 41zM328 314h13q20 0 41 -41v-14q0 -19 -41 -41h-13q-20 0 -41 41v14q0 20 41 41zM805 300h14q19 0 41 -41v-13q0 -20 -41 -41h-14q-19 0 -41 41v13q0 20 41 41zM546 246h14q19 0 40 -41v-14q0 -20 -40 -41h-14q-20 0 -41 41v14
q0 19 41 41z" />
    <glyph glyph-name="d" unicode="d" horiz-adv-x="1257" 
d="M483 1433q420 0 687 -322q73 -142 73 -234q-70 -526 -205 -687q-140 -190 -702 -190h-190q-131 0 -131 146q-15 76 -15 176v219q0 53 15 132q0 14 -15 14q44 731 102 731q135 0 381 15zM146 1360q185 -234 205 -234q0 58 175 58q-125 175 -160 191h-74zM409 1375
q130 -220 293 -220q175 -130 175 -395q15 0 249 -292q0 79 58 278q-355 467 -541 614q-24 15 -73 15h-161zM102 1345q-29 -215 -29 -321q263 -322 278 -322q15 172 15 248v103q-230 292 -249 292h-15zM717 1345q445 -533 467 -541h15q0 329 -263 454zM409 1126
q0 -187 -29 -702q15 -28 15 -44h14q410 0 410 307q14 0 14 59q0 380 -233 380h-191zM58 994v-146l-14 -175l497 -615q72 0 278 30v14l-205 249l-263 -44l-15 73v146l15 147zM877 731q-18 -119 -44 -205l205 -234q29 0 73 161zM44 643v-234q244 -365 278 -365h146l29 14
l-439 585h-14zM643 366v-15q176 -234 220 -234q97 39 161 132v14q-191 230 -191 249q-126 -146 -190 -146zM44 366v-74q0 -219 73 -219q54 -15 132 -15v15q-191 267 -191 293h-14z" />
    <glyph glyph-name="e" unicode="e" horiz-adv-x="847" 
d="M191 1433h314q258 0 300 -246q0 -131 -177 -163q-119 13 -205 13h-14v-109q246 -66 246 -246q0 -163 -232 -163h-14v-123l137 13q203 0 259 -245q0 -164 -232 -164h-355q-159 0 -218 287v914q0 232 191 232zM41 1269v-286q0 -121 -14 -273l14 -69q-14 -128 -14 -245
q0 -300 137 -300h409q100 0 123 136q-16 92 -82 136l-95 -13h-178q-27 0 -27 27v205q0 27 177 41q29 36 55 123q-35 136 -96 136l-82 -14h-27q-27 0 -27 28v204q4 28 27 28h178l81 -14q54 0 96 123q-18 150 -123 150h-109q-89 0 -273 -14v14q-150 -18 -150 -123z" />
    <glyph glyph-name="f" unicode="f" horiz-adv-x="785" 
d="M201 1438h331q245 0 245 -201q0 -138 -187 -173q-126 15 -216 15h-14v-173h14q244 0 244 -201q0 -173 -244 -173v-288q0 -244 -201 -244q-173 0 -173 244v950q0 244 201 244zM43 1265v-302q0 -127 -14 -287l14 -72q-14 -138 -14 -273v-29l29 -43v-29l-15 -86
q0 -57 130 -101q158 19 158 130v373q0 29 187 44q30 38 57 129q-37 144 -100 144l-87 -15h-28q-29 0 -29 29v216q4 29 29 29h186l87 -15q56 0 100 130q-19 158 -129 158h-115q-94 0 -288 -15v15q-158 -19 -158 -130zM403 1352h14q21 0 43 -43v-15q0 -20 -43 -43h-14
q-21 0 -43 43v15q0 20 43 43zM144 1194h43q21 0 43 -44v-43q0 -20 -43 -43h-43q-21 0 -43 43v43q0 21 43 44zM288 791h14q21 0 43 -43v-15q0 -20 -43 -43h-14q-21 0 -44 43v15q0 20 44 43zM144 633h43q21 0 43 -43v-44q0 -20 -43 -43h-43q-21 0 -43 43v44q0 20 43 43z
M158 302h15q20 0 43 -43v-15q0 -20 -43 -43h-15q-20 0 -43 43v15q0 21 43 43z" />
    <glyph glyph-name="g" unicode="g" horiz-adv-x="1226" 
d="M589 1438h178q438 -36 438 -247v-27q0 -219 -274 -219h-27q-64 0 -206 68q-162 0 -219 -260q43 -246 219 -246h28v27q0 233 192 233q260 -31 260 -233v-342q-55 -126 -219 -192h-14v14l-27 -14h-14q-14 0 -14 14q-14 0 -14 -14q-630 0 -835 411q-41 146 -41 246v124
q0 539 589 657zM41 712v-82q0 -170 82 -260q0 13 14 13q0 -89 219 -219h14q-77 161 -206 261q0 -42 -27 -42v28q0 67 219 246q-27 45 -27 83v27q72 288 274 288h82q132 -28 150 -28h28q152 0 178 192q0 151 -219 178h-233l-288 -96q-260 -178 -260 -589zM904 726l-14 -28
l137 -109q14 26 14 41q0 57 -137 96zM794 671q0 -22 233 -205v82q0 18 -178 164q-55 -20 -55 -41zM767 644v-14q0 -68 246 -315l14 96v14q-82 95 -260 219zM356 616v-13q153 -167 411 -507q55 0 55 -14q26 14 41 14v14q-244 342 -274 342q-89 0 -233 164zM260 534
q130 -130 356 -438h110q-149 244 -397 493q-63 -27 -69 -55zM767 548v-14q0 -38 178 -370h27q0 17 41 96q-5 37 -246 288zM219 493l-27 -41v-14q82 -72 219 -274q110 -68 178 -68q-235 345 -370 411v-14zM644 452q109 -178 246 -329h14q27 0 27 28q-150 287 -178 301h-109z
" />
    <glyph glyph-name="h" unicode="h" horiz-adv-x="1085" 
d="M899 1433q169 -42 169 -169q-14 -143 -14 -224v-183l14 -84q-28 -46 -28 -85q5 -323 28 -323q0 -351 -141 -351h-70q-155 33 -155 239v267h-365l14 -28v-99q0 -42 14 -42q0 -351 -140 -351h-70q-155 33 -155 239v941q0 239 197 239q168 -42 168 -169q-14 -143 -14 -224
v-155h141l84 14q23 -14 70 -14h56v323q0 239 197 239zM745 1264v-421l-14 -28l-71 14h-267l-70 -14l-14 28v351l14 84q0 56 -126 99q-155 -19 -155 -127v-295q0 -124 -14 -281l14 -70q-14 -132 -14 -253q0 -309 141 -309h28q126 0 126 141v14q0 26 -14 337l28 14h422v-28
h-28v-113q0 -351 140 -351h28q127 0 127 99q-14 366 -14 576v477l14 85q0 55 -127 98q-154 -19 -154 -127zM829 1208h14q20 0 42 -42v-14q0 -20 -42 -42h-14q-20 0 -42 42v14q0 20 42 42zM140 1110h15q20 0 42 -42v-14q0 -21 -42 -42h-15q-20 0 -42 42v14q0 20 42 42z
M843 969h14q20 0 42 -42v-14q0 -20 -42 -42h-14q-20 0 -42 42v14q0 20 42 42zM253 787h14q20 0 42 -42v-14q0 -21 -42 -43h-14q-20 0 -42 43v14q0 20 42 42zM674 773h14q21 0 43 -42v-14q0 -21 -43 -43h-14q-20 0 -42 43v14q0 20 42 42zM927 688h14q20 0 42 -42v-14
q0 -20 -42 -42h-14q-20 0 -42 42v14q0 20 42 42zM464 674h14q20 0 42 -42v-14q0 -20 -42 -42h-14q-21 0 -43 42v14q0 20 43 42zM98 590h14q21 0 43 -42v-14q0 -20 -43 -42h-14q-20 0 -42 42v14q0 20 42 42zM801 407h14q20 0 42 -42v-14q0 -20 -42 -42h-14q-20 0 -42 42v14
q0 20 42 42zM211 295h14q20 0 42 -42v-14q0 -20 -42 -42h-14q-20 0 -42 42v14q0 20 42 42zM955 211h14q21 0 43 -42v-14q0 -21 -43 -43h-14q-20 0 -42 43v14q0 20 42 42z" />
    <glyph glyph-name="i" unicode="i" horiz-adv-x="600" 
d="M263 1438h12q25 -4 25 -25v-25h-37v50zM438 1375q25 -3 25 -25v-25h-25q-25 0 -25 25q4 25 25 25zM138 1363l12 -25l-25 -13l-12 25zM275 1338q141 -62 150 -100v-25q-109 87 -200 87q-46 -49 -87 -162q0 -100 150 -150h75q62 19 62 162v63q27 0 50 -113q0 -75 -100 -137
h-37q-225 12 -225 187v13q56 175 162 175zM513 1225h37v-25h-37v25zM25 1213h13q17 0 37 -38q0 -25 -25 -25h-12q-18 0 -38 38q4 25 25 25zM538 1088h12q25 -4 25 -25v-13h-37q-25 0 -25 25zM88 1050q25 -4 25 -25q0 -25 -25 -25t-25 25q3 25 25 25zM138 988h12
q25 -4 25 -25l-25 -13h-12v38zM463 988l12 -25v-13h-12q-25 0 -25 25zM200 925h125q163 0 163 -400q12 0 12 -225q0 -300 -162 -300h-88q-162 90 -162 463v62q0 321 112 400zM125 488v-150q81 -300 175 -300h50q100 37 100 150q13 0 13 87v350q0 208 -175 275h-38
q-125 -83 -125 -412z" />
    <glyph glyph-name="j" unicode="j" horiz-adv-x="1186" 
d="M969 1433q205 0 205 -368q0 -1010 -150 -1010l-41 -28l-137 41q-182 -68 -232 -68h-95q-441 0 -519 464q46 314 205 314h27q86 0 123 -259q66 -178 164 -178q286 0 286 519v136q-13 186 -13 232q22 205 177 205zM833 1174v-355q0 -519 -314 -519q-219 40 -219 287
q0 68 -68 136h-41q-134 0 -150 -327q98 -161 123 -178q49 -72 232 -163h245q96 0 192 81h40q7 -54 41 -54h82q137 0 137 955q0 341 -150 341t-150 -204zM1010 1256h14q19 0 41 -41v-14q0 -20 -41 -41h-14q-20 0 -41 41v14q0 19 41 41zM901 1105h41q19 0 41 -40v-41
q0 -20 -41 -41h-41q-20 0 -41 41v41q0 19 41 40zM1037 942h14q19 0 41 -41v-14q0 -20 -41 -41h-14q-19 0 -41 41v14q0 19 41 41zM942 737h41q19 0 41 -41v-41q0 -20 -41 -41h-41q-20 0 -41 41v41q0 20 41 41zM177 573h28q19 0 41 -41v-27q0 -20 -41 -41h-28q-19 0 -41 41v27
q0 20 41 41zM860 478h13q20 0 41 -41v-14q0 -20 -41 -41h-13q-20 0 -41 41v14q0 19 41 41zM164 382h13q20 0 41 -41v-13q0 -20 -41 -41h-13q-20 0 -41 41v13q0 20 41 41zM710 300h27q20 0 41 -41v-27q0 -20 -41 -41h-27q-20 0 -41 41v27q0 20 41 41zM355 287h13q20 0 41 -41
v-14q0 -20 -41 -41h-13q-20 0 -41 41v14q0 19 41 41zM983 287h13q20 0 41 -41v-14q0 -20 -41 -41h-13q-20 0 -41 41v14q0 19 41 41zM573 177h14q19 0 41 -41v-13q0 -20 -41 -41h-14q-19 0 -41 41v13q0 20 41 41z" />
    <glyph glyph-name="k" unicode="k" horiz-adv-x="1026" 
d="M198 1455q268 -42 268 -170v-84h14q67 226 255 226h14q254 -39 254 -170v-14q0 -86 -367 -452q-43 -82 -43 -99q96 -92 368 -452q28 0 28 -70v-15q0 -127 -170 -141q-282 43 -282 127q-57 53 -57 99h-14q0 -240 -127 -240h-71q-254 24 -254 212q-14 0 -14 56v947
q0 240 198 240zM42 1285v-296q0 -126 -14 -283l14 -70q-14 -134 -14 -255q0 -310 142 -310h28q127 0 127 141v28q0 48 -14 240l28 14h14q130 -148 254 -381l99 -28q92 0 127 70v43q0 54 -226 296q0 37 -183 241q72 137 311 367q113 108 113 169v43q-28 70 -156 70
q-80 0 -339 -452h-42v297l14 85q0 55 -127 99q-156 -19 -156 -128zM636 1285h14q20 0 42 -42v-14q0 -20 -42 -42h-14q-21 0 -43 42v14q0 20 43 42zM127 1271h14q21 0 43 -42v-14q0 -20 -43 -43h-14q-20 0 -42 43v14q0 20 42 42zM198 1017h14q20 0 42 -42v-14q0 -21 -42 -43
h-14q-21 0 -43 43v14q0 20 43 42zM339 862h14q20 0 43 -43v-14q0 -20 -43 -42h-14q-20 0 -42 42v14q0 21 42 43zM113 763h42q21 0 43 -43v-42q0 -20 -43 -42h-42q-20 0 -42 42v42q0 21 42 43zM424 579h14q20 0 42 -42v-14q0 -21 -42 -43h-14q-21 0 -43 43v14q0 20 43 42z
M226 551h14q20 0 43 -42v-15q0 -20 -43 -42h-14q-20 0 -42 42v15q0 20 42 42zM636 396h14q20 0 42 -43v-14q0 -20 -42 -42h-14q-21 0 -43 42v14q0 20 43 43zM113 297h14q20 0 43 -43v-14q0 -20 -43 -42h-14q-20 0 -42 42v14q0 21 42 43z" />
    <glyph glyph-name="l" unicode="l" horiz-adv-x="794" 
d="M201 1433q172 0 172 -244v-401q0 -143 -15 -430h15q90 0 215 15q186 0 186 -201q0 -172 -244 -172h-329q-201 0 -201 244v945q0 244 201 244zM43 1290l14 -72q20 0 158 158q-29 0 -29 14q-143 -37 -143 -100zM244 1376q-215 -224 -215 -244v-72q18 0 258 258v43
q-16 0 -43 15zM29 1017v-100h14q240 193 287 258v129h-15q-19 0 -286 -287zM29 702h14q0 -14 -14 -14q14 -53 14 -129q19 0 287 286v115l-273 -258h-14q287 277 287 344v86q-287 -227 -287 -287zM43 516v-115q287 220 287 301v100q-19 0 -287 -286zM43 358v-129h14
q273 181 273 258v129q-240 -192 -287 -258zM43 201v-29q0 -77 57 -100h29q18 0 201 243v86q-266 -200 -287 -200zM287 57l71 -14h43q21 2 230 258v29q-120 0 -344 -273zM158 57q28 0 28 -14q77 0 316 272h-129q-23 -1 -215 -258zM659 315q0 -21 -215 -272h129
q118 115 144 201q-28 65 -58 71zM616 43h15q86 30 86 115v14q-18 0 -101 -129z" />
    <glyph glyph-name="m" unicode="m" horiz-adv-x="1940" 
d="M558 1429h95q240 0 354 -136q229 109 300 109h95q358 0 490 -327q41 -168 41 -272q0 -749 -96 -749q-57 -54 -109 -54h-27q-109 56 -109 191v245q0 626 -177 626h-13q-186 0 -218 -150v-55q0 -762 -82 -762q-70 -68 -122 -68h-27q-109 56 -109 191v245q0 626 -177 626
h-14q-286 0 -286 -517v-136q14 -186 14 -232q-22 -204 -177 -204q-204 0 -204 367q0 1008 150 1008l41 27l136 -41q181 68 231 68zM340 1293h-41q0 54 -40 54h-82q-136 0 -136 -952q0 -341 150 -341q149 0 149 205v353q0 518 327 518l54 -14h14v14l-68 13h-82
q-299 0 -299 -626v-122q0 -49 13 -123q-35 -163 -81 -163h-55q-18 0 -68 68v54q0 244 -13 477q27 236 27 503q0 73 163 96q55 -69 95 -69q41 100 422 123v14h-258q-95 0 -191 -82zM1048 1279q14 -26 14 -41q0 41 476 96v13h-259q-66 0 -231 -68zM653 1320v-13
q263 0 368 -205l-28 -13q-89 109 -136 109q150 -107 150 -531q14 0 14 -300h13v232q0 56 -41 463h41q41 -106 41 -708h14q0 20 13 190q0 64 -13 422q-14 27 -14 41q118 123 218 123h14v-14q-69 0 -137 -68v-55h14q21 99 231 109l55 -13h13v13q-54 0 -54 55h-54l-82 13
q-70 -40 -136 -40v27q136 54 313 54v14q-163 0 -163 13q-211 -81 -232 -81q0 -27 -27 -27q-181 190 -299 190h-96zM1402 1293v-14q422 0 422 -530v-422h13q0 20 14 190q0 653 -136 653q-98 123 -218 123h-95zM204 1266q-54 -61 -54 -68v-164h13q10 191 68 191h28
q18 -1 54 -68v-41q-68 -310 -68 -381v-68h14q0 245 122 435q-121 162 -150 164h-27zM449 1266l-54 -55v-13q68 54 95 54v14h-41zM531 1238v-13q64 13 190 13v14h-149q-27 -14 -41 -14zM708 1198v-14q132 0 217 -327h14v55q-50 286 -218 286h-13zM231 1170q-54 -209 -54 -517
v-258h14q0 471 81 707q-27 45 -27 68h-14zM1456 1170v-13q132 0 218 -327h14v55q-51 285 -218 285h-14zM1606 1170q150 -106 150 -530q13 0 13 -300h14v232q0 598 -177 598zM1102 1130q20 0 41 -41l-54 -41h-27v41q0 19 40 41zM136 1021v-191h14v191h-14zM857 925v-27h14v27
h-14zM1606 898v-27h14v27h-14zM871 885l14 -164v-476q0 -107 68 -163h40q137 33 137 204v54h-14q0 -134 -95 -218h-41q-47 0 -68 150v395q0 63 -27 218h-14zM1620 857l13 -163v-476q0 -107 68 -164h41q136 33 136 205v54h-13q0 -134 -96 -218h-41q-47 0 -68 150v395
q0 63 -27 217h-13zM231 653v-394q-26 -63 -54 -68q-27 0 -27 136h-14v-150q45 -27 82 -27q27 49 27 109v394h-14zM122 640v-273h14v273h-14zM966 572l-13 -96v-204h13l14 136v164h-14zM1715 544l-14 -95v-204h14l13 136v163h-13zM966 259v-55q0 -19 41 -41q27 0 27 28v27
q-23 0 -68 41zM1715 231v-54q0 -20 41 -41q27 0 27 27v28q-24 0 -68 40z" />
    <glyph glyph-name="n" unicode="n" horiz-adv-x="1208" 
d="M568 1437h95q360 0 492 -328q42 -168 42 -273q0 -751 -97 -751q-56 -53 -109 -53h-27q-109 55 -109 190v246q0 627 -178 627h-14q-286 0 -286 -518v-136q14 -186 14 -232q-22 -205 -177 -205q-205 0 -205 368q0 1010 150 1010l42 27l136 -41q182 69 231 69zM351 1301h-42
q0 55 -41 55h-81q-137 0 -137 -957q0 -340 151 -340q150 0 150 204v356q0 518 326 518l55 -14h14v14l-69 13h-81q-300 0 -300 -628v-123q0 -48 13 -122q-35 -164 -82 -164h-54q-18 0 -69 69v53q0 246 -14 479q28 237 28 505q0 73 164 95q55 -69 95 -69q41 101 423 123v14
h-259q-95 0 -190 -81zM663 1328v-14q424 0 424 -531v-424h13q0 20 14 191q0 656 -136 656q-98 122 -218 122h-97zM214 1273l-55 -67v-164h14q10 190 67 190h28q19 0 55 -68v-41q-69 -312 -69 -382v-69h14q0 247 123 437q-122 163 -151 164h-26zM460 1273l-56 -54v-13
q69 53 97 53v14h-41zM541 1245v-13q65 13 191 13v14h-150q-26 -14 -41 -14zM719 1206v-14q132 0 219 -328h12v55q-50 287 -218 287h-13zM869 1206q150 -108 150 -534q14 0 14 -300h14v233q0 601 -178 601zM240 1178q-53 -209 -53 -520v-259h14q0 473 81 710q-28 44 -28 69
h-14zM145 1028v-192h14v192h-14zM869 933v-28h14v28h-14zM883 891l13 -164v-478q0 -106 68 -164h41q137 33 137 206v55h-14q0 -135 -95 -219h-42q-46 0 -67 150v395q0 64 -28 219h-13zM240 658v-395q-26 -62 -53 -67q-28 0 -28 136h-14v-150q46 -28 82 -28q27 50 27 109v395
h-14zM132 646v-274h13v274h-13zM978 577l-14 -95v-205h14l13 136v164h-13zM978 263v-54q0 -20 41 -41q28 0 28 28v26q-24 0 -69 41z" />
    <glyph glyph-name="o" unicode="o" horiz-adv-x="1358" 
d="M799 1451h28q358 0 537 -679q-39 -604 -438 -735q-134 -28 -212 -28h-14q-396 0 -622 325q-57 176 -57 297v127q0 421 368 608q261 85 410 85zM63 688v-85q0 -91 57 -255h28q0 169 311 424q57 29 226 43q188 0 481 -255q71 -84 71 -113h28q57 269 57 340
q-194 607 -495 607h-198l-297 -99q-269 -184 -269 -607zM544 758l14 -28v-42q0 -203 71 -622h28v14q0 195 -71 678h-42zM643 758v-56l85 -651h56l-84 707h-57zM445 702v-14q63 -622 127 -622v14q-42 451 -70 664q-57 -21 -57 -42zM756 744v-42q0 -148 85 -636l85 28
q-85 338 -142 650h-28zM841 716q28 -240 127 -594h28q-42 116 -127 594h-28zM389 659v-56h14v56h-14zM940 659v-14q56 -495 127 -495v15q-71 424 -99 480zM275 532l71 -382l28 -14l-28 467q-63 -71 -71 -71zM1039 603q0 -33 71 -396h14l14 56q-67 340 -99 340zM403 574v-282
q10 -184 56 -184h14q0 52 -56 466h-14zM1138 504v-14q0 -26 28 -170h14v28q-11 156 -42 156zM233 461q0 -42 -14 -42q14 -35 42 -212h14v28q0 42 -28 226h-14z" />
    <glyph glyph-name="p" unicode="p" horiz-adv-x="1204" 
d="M365 1433q526 0 647 -155q88 0 182 -463q0 -343 -449 -576h-57q-42 0 -42 14l-70 -14h-211q14 -100 14 -113q0 -107 -140 -126h-70q-155 33 -155 239v478q0 31 -14 56l14 28l-14 225q0 393 183 393q119 14 182 14zM56 1250v-42q20 0 169 169q-169 0 -169 -127zM56 1166
v-126q20 0 337 337h-126q-18 0 -211 -211zM42 983v-168q13 0 520 562h-126q-18 0 -394 -394zM590 1377l-548 -604v-42l14 -141q295 229 295 309v183q0 39 351 56l197 155v14q-130 56 -154 56h-127zM913 1278q-55 -69 -196 -140v-14q45 0 126 -56h42q138 105 141 126v28
q-94 56 -113 56zM1040 1180q-132 -140 -169 -140q42 -43 70 -197q-14 -27 -14 -42q183 150 183 168q-38 211 -70 211zM421 1082q-42 -86 -42 -253v-28q0 -74 14 -239h141q351 0 351 253v70q0 197 -281 197h-183zM84 112q0 -37 71 -70q56 0 182 155q-14 27 -14 42
q21 56 42 56h141q111 0 323 225q248 192 309 267v84l-14 70q-174 -122 -267 -309q-75 -84 -323 -140q-450 -356 -450 -380zM42 407q285 225 309 267v141q-309 -232 -309 -337v-71zM618 295h84q221 0 408 351q28 71 28 99q-512 -428 -520 -450zM42 351q0 -73 28 -196
q450 334 450 351q-169 0 -169 70v56q-309 -239 -309 -281zM225 42h28q84 22 84 98v15q-18 0 -112 -113z" />
    <glyph glyph-name="q" unicode="q" horiz-adv-x="1398" 
d="M726 1438q489 0 633 -660q0 -216 -106 -422v-26q132 -93 132 -185v-13q0 -119 -158 -132h-66q-155 0 -198 79q-14 0 -40 -13q-26 0 -26 13l-132 -13h-132q-368 0 -580 303q-53 164 -53 277v119q0 473 449 594q130 53 277 79zM53 818q297 119 448 119h66q287 0 607 -304
v-26h13q27 116 27 185q-181 567 -462 567h-185l-277 -93q-237 -182 -237 -448zM383 897v-725l-14 -27q14 0 40 -13l13 26q40 651 40 752h-13q-22 -13 -66 -13zM488 910v-13q-26 -434 -26 -765q54 -26 79 -26v13q-26 706 -26 791h-27zM541 910q26 -738 26 -804h53v804h-79z
M646 897v-791h14q26 0 26 26q26 639 26 739l-39 26h-27zM303 858q-26 -587 -26 -647l66 -39h13v712h-26q-27 -4 -27 -26zM211 831q-26 -490 -26 -528q25 -60 52 -66h14q26 551 26 634q-66 -17 -66 -40zM739 871v-13q-27 -681 -27 -752h40l13 52q13 566 13 700l-26 13h-13z
M805 831q-13 -627 -13 -712h13q39 0 105 686h-13q-36 26 -92 26zM119 805q0 -234 -27 -422q59 -53 66 -53v13q27 407 27 488q-66 0 -66 -26zM40 792v-172q0 -53 26 -171h13q13 262 13 356q-23 -13 -52 -13zM937 765q0 -61 -53 -396q105 0 105 396h-52zM1016 726
q-27 -268 -27 -304h53q40 219 40 264l-53 40h-13zM1108 660q-26 -123 -26 -264l26 -13q66 129 66 184q-45 93 -66 93zM897 290q52 -162 238 -250h13q82 26 92 66v39q0 88 -211 238h-66q-39 -11 -66 -93zM858 211v-79h26v13l-13 66h-13z" />
    <glyph glyph-name="r" unicode="r" horiz-adv-x="1217" 
d="M368 1442q529 0 650 -156q88 0 184 -466q0 -229 -241 -452v-15q128 -125 128 -197v-15q0 -127 -170 -141q-172 0 -255 254l-99 -14h-197q14 -100 14 -113q0 -108 -142 -127h-70q-156 33 -156 240v396q0 204 -14 467q0 325 226 325q50 14 142 14zM57 1286q0 -22 -15 -508
q0 -78 15 -198q-15 -81 -15 -227q0 -311 142 -311h42q113 0 113 99v15l-14 84q21 57 43 57h296q169 -236 184 -240l71 -15q91 0 127 71v43q0 59 -141 197v15q240 208 240 438v56q-66 382 -155 382q-99 141 -552 141h-141q-240 0 -240 -99zM269 1329h42q20 0 42 -43v-42
q0 -20 -42 -42h-42q-21 0 -43 42v42q0 21 43 43zM848 1286h14q21 0 43 -42v-14q0 -20 -43 -42h-14q-20 0 -42 42v14q0 20 42 42zM565 1272h15q20 0 42 -42v-14q0 -21 -42 -43h-15q-20 0 -42 43v14q0 20 42 42zM537 1131h156q209 0 254 -269q0 -232 -268 -339l-170 -14
q-156 0 -156 42v538q0 42 184 42zM141 1103h15q20 0 42 -43v-14q0 -20 -42 -42h-15q-20 0 -42 42v14q0 21 42 43zM424 1089q-42 -87 -42 -255v-28q0 -74 14 -241h141q354 0 354 255v71q0 198 -283 198h-184zM1004 1032h28q20 0 42 -42v-29q0 -20 -42 -42h-28q-21 0 -43 42
v29q0 20 43 42zM113 891h14q21 0 43 -43v-14q0 -20 -43 -42h-14q-20 0 -42 42v14q0 21 42 43zM254 806h15q20 0 42 -43v-14q0 -20 -42 -42h-15q-20 0 -42 42v14q0 21 42 43zM1060 792h14q21 0 43 -43v-14q0 -20 -43 -42h-14q-20 0 -42 42v14q0 21 42 43zM212 636h14
q21 0 43 -42v-14q0 -21 -43 -43h-14q-20 0 -42 43v14q0 20 42 42zM905 622h14q20 0 42 -42v-15q0 -20 -42 -42h-14q-21 0 -43 42v15q0 20 43 42zM749 509h43q20 0 42 -42v-43q0 -20 -42 -42h-43q-20 0 -42 42v43q0 20 42 42zM382 467h14q20 0 42 -43v-14q0 -20 -42 -42h-14
q-21 0 -43 42v14q0 20 43 43zM113 438h28q21 0 43 -42v-28q0 -21 -43 -43h-28q-20 0 -42 43v28q0 20 42 42zM622 410h14q20 0 43 -42v-15q0 -20 -43 -42h-14q-20 0 -42 42v15q0 20 42 42zM212 269h14q21 0 43 -43v-14q0 -20 -43 -42h-14q-20 0 -42 42v14q0 21 42 43z
M834 269h14q21 0 43 -43v-14q0 -20 -43 -42h-14q-20 0 -42 42v14q0 21 42 43zM947 198h28q21 0 43 -42v-29q0 -20 -43 -42h-28q-20 0 -42 42v29q0 20 42 42z" />
    <glyph glyph-name="s" unicode="s" horiz-adv-x="1336" 
d="M670 1433h28q413 0 484 -223q9 -16 9 -47q-16 -149 -149 -149q-57 0 -372 75q-149 -7 -149 -38v-18q0 -73 196 -102q468 -119 549 -270q65 -85 65 -186q0 -313 -373 -447q-141 -28 -269 -28q-418 0 -531 74q-158 130 -158 187q0 155 242 176q43 0 409 -65h56
q130 0 130 75q0 98 -167 130q-503 138 -503 205q-93 109 -93 223q0 167 261 354q165 74 335 74zM121 996q0 -264 419 -317q335 -100 335 -186q9 -15 9 -46q-21 -121 -167 -121q-126 0 -456 65h-47q-167 -28 -167 -121q0 -92 232 -196q116 -18 196 -18h316q363 0 484 307
q9 82 9 102q0 331 -688 438q-121 39 -121 121v46q0 45 176 65q17 0 345 -65q34 -9 83 -9q66 28 66 93q0 190 -308 223q-45 9 -120 9h-75q-385 0 -512 -325zM912 1340h9q0 -41 -139 -195l-10 18q19 0 75 112zM754 1321v-18l-224 -103h-9v19q199 102 233 102zM409 1293h10
l-65 -316h-19v37q0 10 9 10q0 9 -9 9q39 239 74 260zM949 1219h9q88 -42 112 -102l-19 -10l-102 103v9zM214 921q354 -99 354 -149v-9h-10l-344 140v18zM661 865q74 -172 74 -223h-9q-28 0 -84 214zM912 800q19 -3 19 -18l-121 -140h-10q0 61 112 158zM977 698l19 -9
q-37 -124 -56 -131q0 10 -9 10q25 130 46 130zM1228 549v-19l-195 -37q-18 9 -28 9v19q159 28 223 28zM912 475h19q0 -13 214 -177l46 -56v-9h-9q-261 197 -261 214q-9 18 -9 28zM335 335h28v-9l-196 -168h-9v9q42 72 177 168zM540 195h9q307 -13 307 -46v-9h-28
q-41 0 -288 37v18z" />
    <glyph glyph-name="t" unicode="t" horiz-adv-x="1019" 
d="M498 1438q171 0 171 -242v-85l29 14h57q242 0 242 -200q-33 -156 -143 -156h-185v-527q0 -209 -156 -242h-72q-142 0 -142 342q28 77 28 398v29l-28 -14h-57q-242 0 -242 199q0 171 313 171q0 12 -14 114q16 199 199 199zM342 1296l14 -86v-43h14q21 0 200 200
q-86 14 -86 28q-142 -36 -142 -99zM584 1353q0 -18 -228 -228q0 -71 -128 -71l-171 -143q0 -68 71 -114q222 182 484 513v28zM199 812l72 -15q73 0 355 342v128q-54 -37 -427 -455zM57 968h28q92 71 114 71v29l-57 14q-85 -29 -85 -114zM342 812q14 -4 14 -143q19 0 370 399
v14h-100zM755 1082q0 -25 -399 -456v-113q18 0 512 512v57l-71 -14h-14zM897 1054q0 -47 -199 -242h57q116 0 185 185q-22 57 -43 57zM826 797h28q86 30 86 114q-18 0 -114 -114zM356 470v-100q285 199 285 342v43q-19 0 -285 -285zM342 342v-128q299 222 299 284l-15 72
q-260 -228 -284 -228zM342 157l14 -72h28q251 214 257 242v100q-299 -226 -299 -270zM399 57l28 -14h71q128 0 128 228q-224 -189 -227 -214z" />
    <glyph glyph-name="u" unicode="u" horiz-adv-x="1213" 
d="M989 1442q206 0 206 -371q0 -1016 -151 -1016l-41 -28l-138 42q-183 -69 -233 -69h-96q-362 0 -495 330q-41 170 -41 274q0 756 96 756q58 55 110 55h27q110 -56 110 -193v-247q0 -632 179 -632h14q288 0 288 522v138q-14 187 -14 233q23 206 179 206zM851 1181v-357
q0 -522 -329 -522l-55 14h-14v-14l69 -14h82q302 0 302 632v124q0 49 -13 123q35 165 82 165h55q18 0 69 -69v-54q0 -247 13 -481q-27 -239 -27 -508q0 -74 -165 -96q-55 68 -96 68q-41 -100 -426 -123v-14h261q96 0 192 82h42q7 -55 41 -55h82q138 0 138 962
q0 343 -151 343q-152 0 -152 -206zM55 1154v-55h14q0 135 96 219h41q48 0 69 -151v-398q0 -63 27 -220h14l-14 165v481q0 108 -69 165h-41q-137 -34 -137 -206zM975 1291q-27 -50 -27 -110v-398h13v398q27 63 55 69q28 0 28 -138h13v151q-45 28 -82 28zM151 1250v-28
q24 0 69 -41v55q0 20 -41 41q-28 -4 -28 -27zM220 1167l-14 -137v-165h14l13 96v206h-13zM96 1085q-14 -172 -14 -192q0 -660 138 -660q99 -123 219 -123h97v14q-426 0 -426 535v426h-14zM151 1071v-233q0 -605 179 -605q-151 108 -151 536q-14 0 -14 302h-14zM1057 1071
v-274h14v274h-14zM1003 1044q0 -476 -83 -714q28 -45 28 -69h13q55 211 55 522v261h-13zM934 769q0 -248 -124 -439q122 -163 151 -165h28l55 68v165h-14q-9 -192 -69 -192h-27q-19 1 -55 69v41q69 313 69 384v69h-14zM1044 604v-192h13v192h-13zM247 577v-55
q51 -289 220 -289h14v14q-134 0 -220 330h-14zM316 536v-28h14v28h-14zM700 179v-14h42l55 55v13q-69 -54 -97 -54zM467 192v-13h151q27 13 41 13v14q-65 -14 -192 -14z" />
    <glyph glyph-name="v" unicode="v" horiz-adv-x="1751" 
d="M144 1438q16 0 16 -16l32 16h64q121 0 415 -527l208 -288q502 815 575 815h96q16 0 16 -16l32 16q95 -57 144 -192q0 -86 -368 -607q-298 -440 -335 -559q-108 -80 -160 -80h-16q-146 0 -224 240q-43 1 -224 383q-42 0 -335 448q-35 0 -80 175q48 135 144 192zM224 1390
l-16 -32q12 0 815 -1182q0 35 79 112q-79 105 -367 431q-23 73 -224 352q-187 303 -223 303q-28 16 -64 16zM1390 1310q0 -23 208 -208h16q80 113 80 144q-25 82 -160 144q-116 0 -144 -80zM80 1294q811 -1178 847 -1214l80 48q-771 1186 -831 1230h-32q-25 0 -64 -64z
M1358 1278q0 -25 -80 -128v-16q183 -222 208 -223q96 148 96 175l-208 192h-16zM48 1262v-16q0 -44 160 -239q0 -14 559 -895q58 -48 112 -48h16q-815 1198 -831 1198h-16zM1150 943q0 -23 208 -208h16q0 32 80 128v32q-174 207 -192 207t-112 -159zM1039 799
q159 -263 159 -288h16q128 152 128 208l-208 192q-29 0 -95 -112zM1023 767q0 -43 -128 -192v-16q211 -223 223 -223q52 127 80 127q-159 275 -159 304h-16z" />
    <glyph glyph-name="w" unicode="w" horiz-adv-x="2059" 
d="M1800 1460h99q142 0 142 -1021q0 -425 -198 -425h-14q-39 0 -142 71q-169 -85 -440 -85q-171 0 -297 170q-166 -156 -355 -156q-436 0 -510 397q-85 382 -85 468q0 553 213 553h56q142 -51 142 -284v-354q0 -397 184 -397q241 0 241 737q0 298 170 298h15
q170 -52 170 -199q14 -44 14 -170v-241q0 -425 184 -425q170 0 170 170q36 106 85 751q71 142 156 142zM1403 354h-28q-213 0 -213 539v213q0 269 -184 269h-28q-85 -62 -85 -241v-227q0 -514 -255 -553h-43q-198 24 -198 411v397q0 227 -142 227h-43q-141 -99 -141 -425
q90 -836 269 -836q159 -71 255 -71q253 0 383 184h28q71 -198 298 -198q293 0 467 127q0 -14 15 -14l-29 -57q52 -42 100 -42h28q123 0 142 467q0 893 -128 893h-99q-128 0 -142 -737q0 -212 -127 -311zM1857 1219h14q20 0 43 -42v-15q0 -20 -43 -42h-14q-20 0 -43 42v15
q0 20 43 42zM128 1205h14q20 0 42 -43v-14q0 -20 -42 -42h-14q-21 0 -43 42v14q0 21 43 43zM950 1177h14q20 0 42 -43v-14q0 -21 -42 -43h-14q-21 0 -43 43v14q0 20 43 43zM269 1063h14q21 0 43 -42v-15q0 -20 -43 -42h-14q-20 0 -42 42v15q0 20 42 42zM1063 964h14
q21 0 43 -43v-14q0 -20 -43 -42h-14q-20 0 -42 42v14q0 21 42 43zM1743 936h15q20 0 42 -43v-14q0 -21 -42 -43h-15q-20 0 -42 43v14q0 20 42 43zM142 865h14q20 0 42 -43v-14q0 -20 -42 -43h-14q-21 0 -43 43v14q0 21 43 43zM255 652h14q21 0 43 -42v-15q0 -20 -43 -42h-14
q-20 0 -42 42v15q0 20 42 42zM950 624h14q20 0 42 -43v-14q0 -20 -42 -43h-14q-21 0 -43 43v14q0 21 43 43zM1800 595h14q21 0 43 -42v-14q0 -21 -43 -43h-14q-20 0 -42 43v14q0 20 42 42zM227 454h14q20 0 42 -43v-14q0 -20 -42 -43h-14q-21 0 -43 43v14q0 20 43 43z
M780 411h14q20 0 42 -42v-15q0 -20 -42 -42h-14q-21 0 -43 42v15q0 20 43 42zM1091 397h15q20 0 42 -43v-14q0 -20 -42 -42h-15q-20 0 -42 42v14q0 21 42 43zM1644 397h14q21 0 43 -43v-14q0 -20 -43 -42h-14q-20 0 -42 42v14q0 21 42 43zM581 312h14q21 0 43 -43v-14
q0 -20 -43 -42h-14q-20 0 -42 42v14q0 21 42 43zM1361 298h14q20 0 42 -43v-14q0 -20 -42 -43h-14q-21 0 -43 43v14q0 21 43 43zM1857 298h14q20 0 43 -43v-14q0 -20 -43 -43h-14q-20 0 -43 43v14q0 21 43 43zM369 283h14q20 0 42 -42v-14q0 -21 -42 -43h-14q-21 0 -43 43
v14q0 20 43 42zM1219 198h14q21 0 43 -42v-14q0 -21 -43 -43h-14q-20 0 -42 43v14q0 20 42 42zM666 184h14q21 0 43 -42v-14q0 -21 -43 -43h-14q-20 0 -42 43v14q0 20 42 42z" />
    <glyph glyph-name="x" unicode="x" horiz-adv-x="1133" 
d="M175 1433q171 0 308 -322q58 -29 58 -87h29q208 409 337 409h58q146 -34 146 -146v-15q0 -89 -380 -468q-44 -88 -44 -102q99 -96 380 -468q30 0 30 -73v-15q0 -131 -176 -146q-176 0 -307 336q-36 0 -44 59h-29q-156 -282 -234 -366q-67 -29 -146 -29q-146 34 -146 146
v15q0 71 234 322q0 36 175 234q-84 135 -409 497q-15 25 -15 58v15q0 131 175 146zM44 1316v-44q0 -80 88 -131q18 0 146 190v29l-103 29q-94 0 -131 -73zM790 1272l175 -161q102 101 102 161v44q-28 73 -160 73q-117 -45 -117 -117zM292 1316q0 -15 -146 -205
q158 -175 176 -175h14q18 0 103 131v44q-126 205 -147 205zM760 1258q0 -25 -117 -191l132 -146q161 132 161 190l-161 147h-15zM351 907l102 -132q73 164 73 190v15q-38 72 -58 73q-16 -2 -117 -146zM629 1053l-73 -117q29 0 87 -161h15q82 78 88 146zM541 921
q0 -40 -73 -146q73 -167 73 -249q34 0 88 205q0 27 -73 190h-15zM336 541q0 -19 147 -146l58 58q-58 185 -58 234h-15q-23 0 -132 -146zM643 687q0 -38 -87 -219q15 0 87 -102h15q161 111 161 131q-162 190 -176 190zM161 307l175 -161h15q0 44 117 220q0 19 -146 146z
M819 468q-144 -122 -146 -132v-14q52 -70 87 -176h15q20 0 175 176q-18 0 -131 146zM58 161v-44q29 -73 161 -73q94 38 103 73q0 20 -176 175q-88 -51 -88 -131zM790 117q0 -44 131 -73q95 0 132 73v44q0 80 -88 131q-20 0 -175 -175z" />
    <glyph glyph-name="y" unicode="y" horiz-adv-x="1266" 
d="M197 1429q192 0 345 -361q66 -33 66 -99h33q233 460 377 460h66q164 -38 164 -164v-17q0 -96 -410 -509v-460q0 -279 -230 -279q-171 0 -197 230v460q0 69 -378 460q-33 54 -33 98v17q0 148 197 164zM49 1298v-50q0 -95 378 -443l49 -82v-460l-16 -99q0 -64 148 -115
q180 22 180 148v427l-16 115q427 445 427 476v83q-32 82 -181 82q-87 0 -377 -493h-17q-331 493 -378 493h-49q-106 0 -148 -82zM986 1314h16q24 0 49 -49v-17q0 -23 -49 -49h-16q-24 0 -50 49v17q0 23 50 49zM214 1281h49q23 0 49 -49v-49q0 -24 -49 -50h-49q-24 0 -50 50
v49q0 24 50 49zM394 1100h17q23 0 49 -49v-16q0 -24 -49 -49h-17q-23 0 -49 49v16q0 24 49 49zM871 1100h16q24 0 49 -49v-16q0 -24 -49 -49h-16q-24 0 -50 49v16q0 24 50 49zM641 821h16q24 0 49 -49v-16q0 -24 -49 -50h-16q-24 0 -50 50v16q0 24 50 49zM558 542h50
q23 0 49 -49v-50q0 -23 -49 -49h-50q-23 0 -49 49v50q0 23 49 49zM673 312h17q23 0 49 -49v-17q0 -23 -49 -49h-17q-23 0 -49 49v17q0 23 49 49z" />
    <glyph glyph-name="z" unicode="z" horiz-adv-x="1438" 
d="M286 1460h716q132 0 258 -86q157 0 157 -186q0 -64 -401 -515l-200 -244h215q59 0 229 -85q114 0 114 -115v-72q-33 -157 -243 -157h-716q-132 0 -258 86q-157 0 -157 186q0 72 286 372l329 372v15h-229q-59 0 -229 85q-114 0 -114 115v72q33 157 243 157zM186 1403
q0 -19 258 -258h157v14q-208 272 -272 272q-26 -14 -143 -28zM415 1417q215 -247 215 -272h86q28 -4 28 -29v-14l-28 -43l186 -186l114 143q-400 415 -443 415h-58zM658 1417q351 -386 373 -386q47 71 57 71q-79 150 -243 315h-187zM887 1417q91 -105 215 -286q57 0 100 129
q-19 157 -128 157h-187zM86 1288v-28q0 -129 114 -129q122 14 201 14q0 18 -244 243q-71 -19 -71 -100zM587 916l200 -186q0 16 86 115v14q-89 124 -172 186q-14 -1 -114 -129zM487 802q169 -201 186 -201l86 115q0 20 -186 186q-13 0 -86 -100zM458 787l-86 -114l201 -186
l71 86v14q-164 199 -186 200zM286 573q385 -417 401 -473h14l144 15q-215 286 -315 286v28l28 43l-200 186q-18 0 -72 -85zM200 458q162 -148 301 -343h157q-372 443 -386 443q-72 -43 -72 -100zM172 458l-72 -86q199 -255 215 -257h157v14q-281 329 -300 329zM988 401v-15
l157 -186h14v72q0 129 -143 129h-28zM644 386q192 -248 272 -286q18 15 100 15q-203 236 -257 271h-115zM802 386q215 -257 257 -257q47 28 72 28v15q-117 166 -186 214h-143zM72 358q-11 -86 -29 -86q19 -157 129 -157h100q-150 211 -200 243z" />
    <glyph glyph-name="braceleft" unicode="{" 
d="M240 698q172 5 223 71t51 133v468q0 74 77 141.5t185 67.5h108v-50h-90q-61 0 -107 -33.5t-47 -91.5v-500q0 -83 -60.5 -158.5t-142.5 -76.5v-2q82 -1 143 -76t61 -158l-1 -500q1 -58 47 -91.5t107 -33.5h90v-50h-108q-108 0 -184.5 67.5t-77.5 141.5v468q0 66 -51 132
t-223 71v60z" />
    <glyph glyph-name="bar" unicode="|" 
d="M427 1577h160v-1995h-160v1995z" />
    <glyph glyph-name="braceright" unicode="}" 
d="M774 638q-172 -5 -223 -71t-51 -132v-468q-1 -74 -77.5 -141.5t-184.5 -67.5h-108v50h90q61 0 107 33.5t47 91.5l-1 500q0 83 61 158t144 76v2q-83 1 -143.5 76.5t-60.5 158.5v500q-1 58 -47 91.5t-107 33.5h-90v50h108q108 0 185 -67.5t77 -141.5v-468q0 -67 51 -133
t223 -71v-60z" />
    <glyph glyph-name="asciitilde" unicode="~" horiz-adv-x="573" 
d="M139 1480q23 -49 23 -77h13l23 36q88 23 105 23q9 -4 14 -4v-5q-24 -37 -64 -37q0 -17 -9 -27q45 -23 105 -69q0 -11 14 -41l9 5q9 -2 9 -9v-15q0 -23 -14 -27q-30 69 -59 69q0 9 -14 9l-9 -5l-9 5q-9 -5 -18 -5q-10 5 -14 5v-9q74 -101 128 -247q0 -14 23 -69
q36 -107 36 -233q6 0 24 -115l-5 -55q5 -32 5 -36q-5 -94 -14 -151q12 -65 23 -73v-9q0 -11 -64 -24h-9q-25 0 -37 19v5q41 140 41 214v5q0 462 -151 709h-5v-4q5 -8 5 -18l-9 -5q-8 5 -18 5q-5 -46 -9 -46l4 -9v-9q0 -10 -9 -10h-10q-20 0 -27 83h-4l-33 -42q5 -32 5 -36
l-5 -10q10 -20 10 -59l-10 -5h-4q-11 2 -27 42q-19 0 -19 9v4q0 5 5 5q-5 9 -5 14q0 20 10 41l-5 23l5 18q-5 8 -5 18l14 24v27q-12 0 -23 -42h-10l-18 15q-9 -19 -9 -51v-59q0 -9 -9 -9t-19 45q-19 0 -27 23q14 32 14 64q-5 9 -5 14q20 0 37 55q69 8 69 32q4 9 4 14
q-73 14 -73 22v5q12 23 41 23q0 27 69 27zM307 253h7q13 -2 13 -13l-13 -7h-7v20zM485 253h7v-7q0 -13 -13 -13l-8 13zM396 240h14q82 0 82 -69q-32 -130 -123 -130q-76 46 -76 96v14q0 70 103 89zM280 226q13 -2 13 -14q0 -14 -13 -14q-14 0 -14 14q2 14 14 14zM348 212
v-14h7v14h-7zM526 198h21v-7q0 -13 -13 -13h-8q-13 0 -13 13zM253 144h6q13 -2 13 -14q0 -10 -19 -21h-8q-13 0 -13 14q0 10 21 21zM513 117h21v-15h-21v15zM307 48l7 -14l-14 -7l-7 14zM471 48h14v-14q0 -14 -14 -14q-13 0 -13 14q2 14 13 14zM376 13h20v-14q0 -13 -14 -13
h-6v27z" />
    <glyph glyph-name="exclamdown" unicode="&#xa1;" horiz-adv-x="672" 
 />
    <glyph glyph-name="cent" unicode="&#xa2;" horiz-adv-x="1139" 
 />
    <glyph glyph-name="sterling" unicode="&#xa3;" 
d="M748 1347q-72 31 -160 31h-2q-100 0 -190 -101q-84 -93 -84 -241q0 -15 1 -30q0 -135 53 -273h360v-60h-334q14 -30 31 -60q35 -63 35 -138q0 -161 -162 -375h402q130 0 189 132l49 -1l-103 -231h-719l1 50q187 238 187 418q0 77 -34 143q-17 32 -31 62h-161v60h135
q-58 143 -58 253q0 226 123.5 347t306.5 121h4q75 0 185.5 -14t110.5 -34v-161h-58q-5 61 -77 102z" />
    <glyph glyph-name="currency" unicode="&#xa4;" 
d="M350 560q41 -40 99 -57q29 -8 58 -8t58 8q58 17 99 57q40 41 57 99q9 29 9 58t-9 58q-17 58 -57 99q-41 40 -100 57q-29 8 -58 8t-58 -9q-58 -17 -98 -56q-39 -40 -56 -98q-10 -30 -10 -60q0 -28 9 -56q16 -59 57 -100zM240 903l-118 118l80 81l118 -118q44 30 99 46
q44 14 89 14q41 0 83 -12q57 -17 102 -48l118 118l80 -81l-117 -117q31 -46 48 -102q12 -42 12 -85q0 -42 -12 -85q-17 -56 -48 -102l117 -117l-80 -81l-118 118q-45 -32 -101 -48q-42 -12 -85 -12q-42 0 -85 12q-57 16 -102 48l-118 -118l-80 81l118 117q-32 46 -48 103
q-12 42 -12 84q0 44 13 87q16 55 47 99z" />
    <glyph glyph-name="yen" unicode="&#xa5;" horiz-adv-x="1262" 
d="M547 225l-2 242q0 19 -1.5 35t-4.5 32l-484 1q-14 0 -21 6.5t-7 19.5t6.5 19t21.5 6h467l-121 172h-344q-17 0 -23.5 5.5t-6.5 18.5q0 14 6 19.5t22 5.5h307q-43 57 -108 155q-131 197 -227 197q-7 0 -13 5.5t-6 11.5q0 19 10.5 27.5t32.5 8.5q27 0 123 -8t164 -8h88
q33 0 41 -6.5t8 -26.5q0 -8 -15 -14t-38 -6q-6 0 -18.5 2t-18.5 2q-24 0 -37.5 -9.5t-13.5 -25.5q0 -18 16.5 -52t46.5 -77l158 -221q13 -19 33 -53q41 -70 71 -70q9 0 16.5 5t14.5 15l277 396q8 12 13 26.5t5 24.5q0 18 -10 27t-37 14q-15 2 -41 4q-47 3 -47 25
q0 15 8 22.5t25 7.5q3 0 15 -1q56 -7 108 -7h139q30 0 65 1t37 1q11 0 18.5 -4.5t8.5 -11.5q0 -28 -38 -34q-18 -3 -27 -5q-63 -15 -147 -117q-7 -9 -12 -15l-169 -206h323q15 0 24 -6t9 -17q0 -15 -6 -20.5t-23 -5.5h-366q-46 -57 -96.5 -112.5t-52.5 -59.5h511
q18 0 25.5 -5.5t7.5 -17.5q0 -14 -7 -21t-22 -7h-530q0 -11 -1 -30.5t-1 -29.5l2 -215q0 -114 5.5 -150t20.5 -44q30 -17 107.5 -19t77.5 -31q0 -12 -10 -20t-25 -8q-2 0 -35.5 4t-64.5 4q-91 0 -208.5 -4t-142.5 -4q-31 0 -40 4t-9 16t8 18.5t37 12.5q9 2 25 5q74 16 92 32
q17 13 24 47t7 102z" />
    <glyph glyph-name="brokenbar" unicode="&#xa6;" 
d="M427 371h160v-789h-160v789zM427 1578h160v-789h-160v789z" />
    <glyph glyph-name="section" unicode="&#xa7;" 
d="M545 321q56 16 97 53q73 65 73 166q0 5 -1 10h-2q-1 14 -4 27q-22 61 -113 127q-59 29 -126 29q-78 0 -125 -44.5t-47 -117.5q0 -123 248 -250zM466 -346q113 6 185 69q72 64 72 165q0 125 -316 276q-123 64 -175.5 137t-52.5 177q0 148 89 237q67 65 170 82l-40 19
q-123 64 -175.5 137t-52.5 177q0 148 89 237q82 79 216 86q8 1 17 1h3q66 0 163 -16.5t97 -41.5v-194h-51q-5 81 -80 132q-70 47 -149 51h-15q-78 0 -125 -44.5t-47 -117.5q0 -132 287 -269q149 -67 204.5 -143.5t55.5 -187.5q0 -171 -101 -282q-47 -39 -99 -64
q108 -56 154 -118q55 -77 55 -187q0 -171 -101 -283q-124 -102 -277 -105v1q-6 -1 -13 -1h-3q-66 0 -163 16.5t-97 41.5v194h51q5 -81 80 -132q68 -45 145 -50z" />
    <glyph glyph-name="dieresis" unicode="&#xa8;" horiz-adv-x="1024" 
d="M223 1289l71 72q13 12 25 12q11 0 27 -14l69 -73q10 -14 10 -25q0 -13 -12 -27l-69 -75q-17 -17 -25 -17q-14 0 -25 12l-76 86q-9 12 -9 23q0 13 14 26zM588 1289l71 72q13 12 25 12q11 0 27 -13l69 -74q10 -14 10 -25q0 -13 -12 -26l-69 -76q-17 -17 -25 -17
q-14 0 -25 12l-76 87q-9 11 -9 22q0 13 14 26z" />
    <glyph glyph-name="copyright" unicode="&#xa9;" horiz-adv-x="1674" 
d="M840 1456q145 0 280 -56.5t239 -160.5q102 -101 158.5 -238t56.5 -283q0 -147 -56.5 -282t-162.5 -240q-105 -105 -239 -159.5t-283 -54.5q-146 0 -278 55.5t-238 160.5q-106 104 -161.5 237.5t-55.5 282.5q0 148 55.5 283t159.5 238q102 104 238.5 160.5t286.5 56.5z
M357 1197q-95 -96 -146 -219.5t-51 -259.5q0 -137 51 -259t148 -219q98 -96 219 -147t256 -51q137 0 259.5 50.5t219.5 145.5q97 98 149 221.5t52 258.5q0 134 -52 259.5t-145 219.5q-96 96 -220 147.5t-258 51.5q-137 0 -262 -51.5t-220 -147.5zM865 223q-142 0 -264 68
t-186 185t-64 243t65.5 244t187.5 184.5t254 66.5q38 0 75 -6.5t76 -20.5q5 -1 9 -1q19 0 26 30h42l72 -198h-44q-52 94 -131 124q-72 26 -147 26h-15q-86 -8 -166.5 -71t-121.5 -177q-33 -90 -33 -184q0 -25 2 -50q11 -121 69.5 -224t149.5 -152q72 -40 166 -42
q124 0 194 56t70 126h53v-100q0 -46 -96.5 -86.5t-242.5 -40.5z" />
    <glyph glyph-name="ordfeminine" unicode="&#xaa;" horiz-adv-x="648" 
 />
    <glyph glyph-name="guillemotleft" unicode="&#xab;" horiz-adv-x="944" 
d="M174 479l342 303h14v-37l-205 -266l205 -266v-37h-14zM487 479l342 303h14v-37l-205 -266l205 -266v-37h-14z" />
    <glyph glyph-name="logicalnot" unicode="&#xac;" 
d="M87 767h840v-491l-1 -1h-98v392h-741v100z" />
    <glyph glyph-name="registered" unicode="&#xae;" horiz-adv-x="1674" 
d="M751 1099v-374l3 -8q23 -56 56 -81q29 -22 56 -22h6q31 4 61.5 38.5t46.5 97.5q13 50 13 103q0 13 -1 27q-4 67 -28 124.5t-56.5 76t-63.5 18.5h-93zM984 576l82 -116q100 -141 150 -141h34v-50h-346v50h45q30 0 30 22q0 29 -69 114l-75 102q-42 0 -84 42v-159
q0 -121 36 -121h53v-50h-316v50h43q37 0 37 121v538q0 121 -37 121h-43v70h356q64 -1 125 -42q60 -41 92.5 -114t32.5 -152q0 -78 -32 -150.5t-114 -134.5zM840 1456q145 0 280 -56.5t239 -160.5q102 -101 158.5 -238t56.5 -283q0 -147 -56.5 -282t-162.5 -240
q-105 -105 -239 -159.5t-283 -54.5q-146 0 -278 55.5t-238 160.5q-106 104 -161.5 237.5t-55.5 282.5q0 148 55.5 283t159.5 238q102 104 238.5 160.5t286.5 56.5zM357 1197q-95 -96 -146 -219.5t-51 -259.5q0 -137 51 -259t148 -219q98 -96 219 -147t256 -51
q137 0 259.5 50.5t219.5 145.5q97 98 149 221.5t52 258.5q0 134 -52 259.5t-145 219.5q-96 96 -220 147.5t-258 51.5q-137 0 -262 -51.5t-220 -147.5z" />
    <glyph glyph-name="macron" unicode="&#xaf;" horiz-adv-x="670" 
 />
    <glyph glyph-name="degree" unicode="&#xb0;" horiz-adv-x="674" 
d="M339 1372q-86 0 -147.5 -61t-61.5 -148t61 -147t148 -60t147 60t60 147t-60.5 148t-146.5 61zM339 1442q115 0 196 -81.5t81 -196.5q0 -114 -82 -196t-197 -82q-117 0 -197 81t-80 197t81.5 197t197.5 81z" />
    <glyph glyph-name="plusminus" unicode="&#xb1;" 
 />
    <glyph glyph-name="uni00B2" unicode="&#xb2;" 
 />
    <glyph glyph-name="uni00B3" unicode="&#xb3;" 
 />
    <glyph glyph-name="acute" unicode="&#xb4;" horiz-adv-x="1024" 
d="M607 1375q35 35 55.5 47t40.5 12q33 0 53.5 -20t20.5 -51q0 -22 -15.5 -42t-46.5 -40l-330 -203h-69z" />
    <glyph glyph-name="mu" unicode="&#xb5;" horiz-adv-x="1180" 
 />
    <glyph glyph-name="paragraph" unicode="&#xb6;" horiz-adv-x="1024" 
d="M929 1435v-70h-127v-1365h-82v1365h-166v-1365h-84v738q-174 8 -275.5 102.5t-101.5 245.5q0 157 107.5 253t285.5 96h443z" />
    <glyph glyph-name="periodcentered" unicode="&#xb7;" horiz-adv-x="508" 
d="M131 825h9q18 -3 18 -18l-18 -9h-9v27zM366 825h9v-9q0 -18 -18 -18l-9 18zM248 807h18q109 0 109 -91q-42 -172 -163 -172q-100 62 -100 127v18q0 94 136 118zM94 789q18 -3 18 -18q0 -18 -18 -18t-18 18q3 18 18 18zM185 771v-18h9v18h-9zM420 753h27v-9q0 -19 -18 -19
h-9q-18 0 -18 19zM58 680h9q18 -3 18 -18q0 -13 -27 -27h-9q-18 0 -18 18q0 13 27 27zM402 644h27v-18h-27v18zM131 553l9 -18l-18 -9l-10 18zM348 553h18v-18q0 -18 -18 -18t-18 18q3 18 18 18zM221 508h27v-18q0 -18 -18 -18h-9v36z" />
    <glyph glyph-name="periodcentered" unicode="&#x2219;" horiz-adv-x="508" 
d="M131 825h9q18 -3 18 -18l-18 -9h-9v27zM366 825h9v-9q0 -18 -18 -18l-9 18zM248 807h18q109 0 109 -91q-42 -172 -163 -172q-100 62 -100 127v18q0 94 136 118zM94 789q18 -3 18 -18q0 -18 -18 -18t-18 18q3 18 18 18zM185 771v-18h9v18h-9zM420 753h27v-9q0 -19 -18 -19
h-9q-18 0 -18 19zM58 680h9q18 -3 18 -18q0 -13 -27 -27h-9q-18 0 -18 18q0 13 27 27zM402 644h27v-18h-27v18zM131 553l9 -18l-18 -9l-10 18zM348 553h18v-18q0 -18 -18 -18t-18 18q3 18 18 18zM221 508h27v-18q0 -18 -18 -18h-9v36z" />
    <glyph glyph-name="cedilla" unicode="&#xb8;" horiz-adv-x="1024" 
d="M360 -290q85 -52 152 -52q66 0 94.5 21.5t28.5 66.5t-49 64q-40 16 -102 16q-16 0 -34 -2l48 176h63l-37 -104q32 4 62 5q86 0 134 -40.5t48 -113.5q0 -76 -58.5 -120.5t-160.5 -44.5q-109 0 -189 32v96z" />
    <glyph glyph-name="uni00B9" unicode="&#xb9;" 
 />
    <glyph glyph-name="ordmasculine" unicode="&#xba;" horiz-adv-x="718" 
 />
    <glyph glyph-name="guillemotright" unicode="&#xbb;" horiz-adv-x="944" 
d="M115 176h-14v37l205 266l-205 266v37h14l342 -303zM428 176h-14v37l205 266l-205 266v37h14l342 -303z" />
    <glyph glyph-name="onequarter" unicode="&#xbc;" horiz-adv-x="1708" 
 />
    <glyph glyph-name="onehalf" unicode="&#xbd;" horiz-adv-x="1964" 
 />
    <glyph glyph-name="threequarters" unicode="&#xbe;" horiz-adv-x="1708" 
 />
    <glyph glyph-name="questiondown" unicode="&#xbf;" horiz-adv-x="748" 
 />
    <glyph glyph-name="Agrave" unicode="&#xc0;" horiz-adv-x="1540" 
 />
    <glyph glyph-name="Aacute" unicode="&#xc1;" horiz-adv-x="1540" 
 />
    <glyph glyph-name="Acircumflex" unicode="&#xc2;" horiz-adv-x="1540" 
 />
    <glyph glyph-name="Atilde" unicode="&#xc3;" horiz-adv-x="1540" 
 />
    <glyph glyph-name="Adieresis" unicode="&#xc4;" horiz-adv-x="1540" 
 />
    <glyph glyph-name="Aring" unicode="&#xc5;" horiz-adv-x="1540" 
 />
    <glyph glyph-name="AE" unicode="&#xc6;" horiz-adv-x="2118" 
 />
    <glyph glyph-name="Ccedilla" unicode="&#xc7;" horiz-adv-x="1399" 
 />
    <glyph glyph-name="Egrave" unicode="&#xc8;" horiz-adv-x="1151" 
 />
    <glyph glyph-name="Eacute" unicode="&#xc9;" horiz-adv-x="1151" 
 />
    <glyph glyph-name="Ecircumflex" unicode="&#xca;" horiz-adv-x="1151" 
 />
    <glyph glyph-name="Edieresis" unicode="&#xcb;" horiz-adv-x="1151" 
 />
    <glyph glyph-name="Igrave" unicode="&#xcc;" horiz-adv-x="657" 
 />
    <glyph glyph-name="Iacute" unicode="&#xcd;" horiz-adv-x="657" 
 />
    <glyph glyph-name="Icircumflex" unicode="&#xce;" horiz-adv-x="657" 
 />
    <glyph glyph-name="Idieresis" unicode="&#xcf;" horiz-adv-x="657" 
 />
    <glyph glyph-name="Eth" unicode="&#xd0;" horiz-adv-x="1518" 
 />
    <glyph glyph-name="Ntilde" unicode="&#xd1;" horiz-adv-x="1554" 
 />
    <glyph glyph-name="Ograve" unicode="&#xd2;" horiz-adv-x="1614" 
 />
    <glyph glyph-name="Oacute" unicode="&#xd3;" horiz-adv-x="1614" 
 />
    <glyph glyph-name="Ocircumflex" unicode="&#xd4;" horiz-adv-x="1614" 
 />
    <glyph glyph-name="Otilde" unicode="&#xd5;" horiz-adv-x="1614" 
 />
    <glyph glyph-name="Odieresis" unicode="&#xd6;" horiz-adv-x="1614" 
 />
    <glyph glyph-name="multiply" unicode="&#xd7;" 
d="M507 618l-247 -247l-99 99l247 247l-247 248l99 98l247 -247l248 247l98 -99l-247 -247l247 -247l-99 -99z" />
    <glyph glyph-name="Oslash" unicode="&#xd8;" horiz-adv-x="1614" 
 />
    <glyph glyph-name="Ugrave" unicode="&#xd9;" horiz-adv-x="1501" 
 />
    <glyph glyph-name="Uacute" unicode="&#xda;" horiz-adv-x="1501" 
 />
    <glyph glyph-name="Ucircumflex" unicode="&#xdb;" horiz-adv-x="1501" 
 />
    <glyph glyph-name="Udieresis" unicode="&#xdc;" horiz-adv-x="1501" 
 />
    <glyph glyph-name="Yacute" unicode="&#xdd;" horiz-adv-x="1233" 
 />
    <glyph glyph-name="Thorn" unicode="&#xde;" horiz-adv-x="1120" 
 />
    <glyph glyph-name="germandbls" unicode="&#xdf;" horiz-adv-x="1251" 
 />
    <glyph glyph-name="agrave" unicode="&#xe0;" horiz-adv-x="922" 
 />
    <glyph glyph-name="aacute" unicode="&#xe1;" horiz-adv-x="922" 
 />
    <glyph glyph-name="acircumflex" unicode="&#xe2;" horiz-adv-x="922" 
 />
    <glyph glyph-name="atilde" unicode="&#xe3;" horiz-adv-x="922" 
 />
    <glyph glyph-name="adieresis" unicode="&#xe4;" horiz-adv-x="922" 
 />
    <glyph glyph-name="aring" unicode="&#xe5;" horiz-adv-x="922" 
 />
    <glyph glyph-name="ae" unicode="&#xe6;" horiz-adv-x="1454" 
 />
    <glyph glyph-name="ccedilla" unicode="&#xe7;" horiz-adv-x="905" 
 />
    <glyph glyph-name="egrave" unicode="&#xe8;" horiz-adv-x="909" 
 />
    <glyph glyph-name="eacute" unicode="&#xe9;" horiz-adv-x="909" 
 />
    <glyph glyph-name="ecircumflex" unicode="&#xea;" horiz-adv-x="909" 
 />
    <glyph glyph-name="edieresis" unicode="&#xeb;" horiz-adv-x="909" 
 />
    <glyph glyph-name="igrave" unicode="&#xec;" horiz-adv-x="514" 
 />
    <glyph glyph-name="iacute" unicode="&#xed;" horiz-adv-x="514" 
 />
    <glyph glyph-name="icircumflex" unicode="&#xee;" horiz-adv-x="514" 
 />
    <glyph glyph-name="idieresis" unicode="&#xef;" horiz-adv-x="514" 
 />
    <glyph glyph-name="eth" unicode="&#xf0;" horiz-adv-x="1139" 
 />
    <glyph glyph-name="ntilde" unicode="&#xf1;" horiz-adv-x="1108" 
 />
    <glyph glyph-name="ograve" unicode="&#xf2;" horiz-adv-x="1010" 
 />
    <glyph glyph-name="oacute" unicode="&#xf3;" horiz-adv-x="1010" 
 />
    <glyph glyph-name="ocircumflex" unicode="&#xf4;" horiz-adv-x="1010" 
 />
    <glyph glyph-name="otilde" unicode="&#xf5;" horiz-adv-x="1010" 
 />
    <glyph glyph-name="odieresis" unicode="&#xf6;" horiz-adv-x="1010" 
 />
    <glyph glyph-name="divide" unicode="&#xf7;" 
d="M87 647v140h839l1 -1v-139h-840zM398 408l82 84q15 14 29 14q13 0 31 -16l80 -86q12 -16 12 -29q0 -15 -14 -31l-80 -88q-20 -20 -29 -20q-16 0 -29 14l-88 101q-10 13 -10 26q0 15 16 31zM398 1101l82 84q15 14 29 14q13 0 31 -16l80 -86q12 -16 12 -29q0 -15 -14 -31
l-80 -88q-20 -20 -29 -20q-16 0 -29 14l-88 101q-10 13 -10 26q0 15 16 31z" />
    <glyph glyph-name="oslash" unicode="&#xf8;" horiz-adv-x="1010" 
 />
    <glyph glyph-name="ugrave" unicode="&#xf9;" horiz-adv-x="1059" 
 />
    <glyph glyph-name="uacute" unicode="&#xfa;" horiz-adv-x="1059" 
 />
    <glyph glyph-name="ucircumflex" unicode="&#xfb;" horiz-adv-x="1059" 
 />
    <glyph glyph-name="udieresis" unicode="&#xfc;" horiz-adv-x="1059" 
 />
    <glyph glyph-name="yacute" unicode="&#xfd;" horiz-adv-x="868" 
 />
    <glyph glyph-name="thorn" unicode="&#xfe;" horiz-adv-x="1010" 
 />
    <glyph glyph-name="ydieresis" unicode="&#xff;" horiz-adv-x="868" 
 />
    <glyph glyph-name="dotlessi" unicode="&#x131;" horiz-adv-x="514" 
d="M328 223q0 -173 100 -173h46v-50h-442v50h46q100 0 100 173v432q0 77 -111 77h-48v44q222 69 261 182h48v-735z" />
    <glyph glyph-name="circumflex" unicode="&#x2c6;" horiz-adv-x="1024" 
d="M221 1079l232 355h118l232 -355h-58l-233 216l-233 -216h-58z" />
    <glyph glyph-name="caron" unicode="&#x2c7;" horiz-adv-x="1024" 
d="M221 1434h58l233 -214l233 214h58l-232 -356h-118z" />
    <glyph glyph-name="uni02C9" unicode="&#x2c9;" horiz-adv-x="1024" 
d="M254 1195v125h516v-125h-516z" />
    <glyph glyph-name="breve" unicode="&#x2d8;" horiz-adv-x="1024" 
d="M219 1349h51q17 -73 75 -107t167 -34t166 33.5t74 107.5h51q-20 -133 -94 -201.5t-197 -68.5q-122 0 -197 69t-96 201z" />
    <glyph glyph-name="dotaccent" unicode="&#x2d9;" horiz-adv-x="1024" 
d="M422 1289l69 72q6 6 13 9t14 3q6 0 12.5 -3t12.5 -9l71 -76q5 -4 7 -10t2 -14q-1 -9 -3 -15t-8 -12l-71 -76q-12 -11 -16 -13.5t-7 -2.5q-10 0 -16.5 2.5t-10.5 8.5l-75 87q-4 4 -6 9.5t-2 13.5q0 6 3 12.5t11 13.5z" />
    <glyph glyph-name="ring" unicode="&#x2da;" horiz-adv-x="1024" 
d="M411 1257q0 -42 29 -71t71 -29t71 29t29 71q0 40 -29.5 69.5t-70.5 29.5t-70.5 -29.5t-29.5 -69.5zM335 1257q0 75 51 126t125 51q76 0 127.5 -51.5t51.5 -125.5q0 -75 -51.5 -126.5t-127.5 -51.5q-74 0 -125 51.5t-51 126.5z" />
    <glyph glyph-name="ogonek" unicode="&#x2db;" horiz-adv-x="1024" 
d="M640 0q-71 -62 -110.5 -119.5t-39.5 -112.5q0 -47 27 -75t73 -28q40 0 69.5 15.5t49.5 48.5l28 -16q-36 -63 -90.5 -97t-119.5 -34q-70 0 -114 35.5t-44 90.5q0 76 60.5 156.5t161.5 135.5h49z" />
    <glyph glyph-name="tilde" unicode="&#x2dc;" horiz-adv-x="1024" 
d="M808 1382q-20 -103 -68.5 -154t-126.5 -51h-4q-50 0 -113 23q-66 24 -114 24q-39 0 -60.5 -20.5t-33.5 -71.5h-54q19 106 68 158.5t129 52.5q46 -1 113 -24q64 -23 112 -23h4q36 0 58 20t36 66h54z" />
    <glyph glyph-name="hungarumlaut" unicode="&#x2dd;" horiz-adv-x="1024" 
d="M217 1079l144 273q24 44 45.5 63t46.5 19q28 0 48 -20t20 -47q0 -16 -10.5 -35t-30.5 -41l-205 -212h-58zM502 1079l144 273q24 44 45.5 63t46.5 19q28 0 48 -20t20 -47q0 -16 -10.5 -35t-30.5 -41l-205 -212h-58z" />
    <glyph glyph-name="endash" unicode="&#x2013;" horiz-adv-x="1108" 
d="M56 419v120h996v-120h-996z" />
    <glyph glyph-name="emdash" unicode="&#x2014;" horiz-adv-x="2048" 
d="M0 419v120h2048v-120h-2048z" />
    <glyph glyph-name="quoteleft" unicode="&#x2018;" horiz-adv-x="557" 
d="M319 1016q-44 0 -88.5 65.5t-44.5 151.5q0 109 71 226.5t139 117.5v-43q-73 -43 -87 -190q0 -119 129 -161v-42z" />
    <glyph glyph-name="quoteright" unicode="&#x2019;" horiz-adv-x="557" 
d="M238 1577q44 0 88.5 -65.5t44.5 -151.5q0 -109 -71 -226.5t-139 -117.5v43q73 43 87 190q0 119 -129 161v42z" />
    <glyph glyph-name="quotesinglbase" unicode="&#x201a;" horiz-adv-x="557" 
d="M238 281q44 0 88.5 -65.5t44.5 -151.5q0 -109 -71 -226.5t-139 -117.5v43q73 43 87 190q0 119 -129 161v42z" />
    <glyph glyph-name="quotedblleft" unicode="&#x201c;" horiz-adv-x="910" 
d="M319 1016q-44 0 -88.5 65.5t-44.5 151.5q0 109 71 226.5t139 117.5v-43q-73 -43 -87 -190q0 -119 129 -161v-42zM672 1016q-44 0 -88.5 65.5t-44.5 151.5q0 109 71 226.5t139 117.5v-43q-73 -43 -87 -190q0 -119 129 -161v-42z" />
    <glyph glyph-name="quotedblright" unicode="&#x201d;" horiz-adv-x="910" 
d="M238 1577q44 0 88.5 -65.5t44.5 -151.5q0 -109 -71 -226.5t-139 -117.5v43q73 43 87 190q0 119 -129 161v42zM591 1577q44 0 88.5 -65.5t44.5 -151.5q0 -109 -71 -226.5t-139 -117.5v43q73 43 87 190q0 119 -129 161v42z" />
    <glyph glyph-name="quotedblbase" unicode="&#x201e;" horiz-adv-x="910" 
d="M238 281q44 0 88.5 -65.5t44.5 -151.5q0 -109 -71 -226.5t-139 -117.5v43q73 43 87 190q0 119 -129 161v42zM591 281q44 0 88.5 -65.5t44.5 -151.5q0 -109 -71 -226.5t-139 -117.5v43q73 43 87 190q0 119 -129 161v42z" />
    <glyph glyph-name="dagger" unicode="&#x2020;" 
d="M486 1022q-8 97 -54 178q-57 101 -57 129q0 49 36 78.5t96 29.5q57 0 94.5 -27.5t37.5 -71.5q0 -32 -55 -137q-46 -85 -55 -179q96 8 177 54q101 57 129 57q49 0 79 -36t30 -96q0 -57 -27.5 -94.5t-72.5 -37.5q-32 0 -136 55q-85 46 -179 57q8 -176 110 -277
q-106 -460 -112 -974h-38q-6 514 -114 974q102 101 111 277q-96 -10 -178 -55q-101 -57 -129 -57q-49 0 -78.5 36t-29.5 96q0 57 27.5 94.5t71.5 37.5q32 0 137 -56q85 -46 179 -55z" />
    <glyph glyph-name="daggerdbl" unicode="&#x2021;" 
d="M528 186q94 11 179 57q104 55 136 55q45 0 72.5 -37.5t27.5 -94.5q0 -60 -30 -96t-79 -36q-28 0 -129 57q-81 46 -177 54q9 -94 55 -179q55 -105 55 -137q0 -44 -37.5 -71.5t-94.5 -27.5q-60 0 -96 29.5t-36 78.5q0 28 57 129q46 81 54 178q-94 -9 -179 -55
q-105 -56 -137 -56q-44 0 -71.5 37.5t-27.5 94.5q0 60 29.5 96t78.5 36q28 0 129 -57q82 -45 178 -55q-9 226 -111 398q102 171 111 397q-96 -10 -178 -55q-101 -57 -129 -57q-49 0 -78.5 36t-29.5 96q0 57 27.5 94.5t71.5 37.5q32 0 137 -56q85 -46 179 -55q-8 97 -54 178
q-57 101 -57 129q0 49 36 78.5t96 29.5q57 0 94.5 -27.5t37.5 -71.5q0 -32 -55 -137q-46 -85 -55 -179q96 8 177 54q101 57 129 57q49 0 79 -36t30 -96q0 -57 -27.5 -94.5t-72.5 -37.5q-32 0 -136 55q-85 46 -179 57q8 -226 110 -397q-102 -172 -110 -398z" />
    <glyph glyph-name="bullet" unicode="&#x2022;" horiz-adv-x="1024" 
d="M216 718q0 123 87 209t210 86q122 0 208.5 -86.5t86.5 -208.5t-87.5 -209.5t-209.5 -87.5q-123 0 -209 87t-86 210z" />
    <glyph glyph-name="ellipsis" unicode="&#x2026;" horiz-adv-x="2048" 
d="M145 167l82 84q15 14 29 14q13 0 31 -16l80 -86q12 -16 12 -29q0 -15 -14 -31l-80 -88q-20 -20 -29 -20q-16 0 -29 14l-88 101q-10 13 -10 26q0 15 16 31zM828 167l82 84q15 14 29 14q13 0 31 -16l80 -86q12 -16 12 -29q0 -15 -14 -31l-80 -88q-20 -20 -29 -20
q-16 0 -29 14l-88 101q-10 13 -10 26q0 15 16 31zM1511 167l82 84q15 14 29 14q13 0 31 -16l80 -86q12 -16 12 -29q0 -15 -14 -31l-80 -88q-20 -20 -29 -20q-16 0 -29 14l-88 101q-10 13 -10 26q0 15 16 31z" />
    <glyph glyph-name="guilsinglleft" unicode="&#x2039;" horiz-adv-x="631" 
d="M174 479l342 303h14v-37l-205 -266l205 -266v-37h-14z" />
    <glyph glyph-name="guilsinglright" unicode="&#x203a;" horiz-adv-x="631" 
d="M115 176h-14v37l205 266l-205 266v37h14l342 -303z" />
    <glyph glyph-name="fraction" unicode="&#x2044;" horiz-adv-x="342" 
d="M-342 -29l940 1461h84l-938 -1461h-86z" />
    <glyph glyph-name="fraction" unicode="&#x2215;" horiz-adv-x="342" 
d="M-342 -29l940 1461h84l-938 -1461h-86z" />
    <glyph glyph-name="franc" unicode="&#x20a3;" 
d="M247 357h-194v60h194v732q0 235 -103 235h-96v50h915l103 -231h-49q-59 182 -190 182l-316 -1q-102 0 -102 -235v-352h361q100 0 100 63v58h50v-342h-50v60q0 62 -100 62h-361v-281h194v-60h-194v-72q0 -235 102 -235h97v-50h-560v50h96q103 0 103 235v72z" />
    <glyph glyph-name="lira" unicode="&#x20a4;" 
d="M748 1347q-72 31 -160 31h-2q-100 0 -190 -101q-84 -93 -84 -241q0 -15 1 -30q0 -106 33 -213h380v-60h-360q12 -30 26 -60h352v-60h-321q35 -63 35 -138q0 -161 -162 -375h402q130 0 189 132l49 -1l-103 -231h-719l1 50q187 238 187 418q0 77 -34 143l-2 2h-172v60h143
q-14 31 -26 60h-135v60h113q-36 107 -36 193q0 226 123.5 347t310.5 121q75 0 185.5 -14t110.5 -34v-161h-58q-5 61 -77 102z" />
    <glyph glyph-name="peseta" unicode="&#x20a7;" horiz-adv-x="2028" 
d="M409 1384v-662q3 -9 7 -17q41 -102 108 -153q57 -44 116 -44q10 0 19 1q68 8 127 75t87 177q22 87 22 179q0 24 -1 47q-7 116 -49.5 218.5t-108.5 144.5q-56 35 -112 35q-10 0 -21 -1h-194zM1496 908h-179v-685q0 -81 34 -119q28 -31 81 -37l-71 192l49 1
q55 -130 114 -174q57 -44 127 -44h7q92 0 151 52q59 53 59 136q0 102 -259 226q-101 52 -144 112t-43 145q0 121 73 194zM1039 910q-7 -101 -48 -194q-50 -114 -141 -177.5t-190 -63.5q-100 0 -191 64q-33 22 -60 51v-305q0 -235 102 -235h97v-50h-560v50h96q103 0 103 235
v864q0 235 -103 235h-96v50h618q92 -2 181 -62q91 -62 143 -177q50 -113 51 -237h10q216 0 216 355h50v-355h259q42 19 110 20h2q54 0 133.5 -13.5t79.5 -33.5v-159h-42q-4 66 -65.5 108t-133.5 42q-64 0 -102.5 -36.5t-38.5 -96.5q0 -108 235 -220q122 -55 167.5 -117.5
t45.5 -153.5q0 -140 -83 -231q-102 -84 -228 -86q-58 0 -105 11q-28 6 -56 6q-18 0 -36 -3q-28 -5 -59 -5q-124 0 -173.5 57t-57.5 176h-1v687h-129z" />
    <glyph glyph-name="Euro" unicode="&#x20ac;" 
d="M140 372q-62 135 -76 281h-108l17 60h87v29q0 16 1 31h-71l17 60h58q14 145 76 281q81 178 226 274t298 96q43 0 87 -8q40 -10 82 -29q8 -6 16 -6q20 0 34 45h41l84 -281l-40 -1q-49 134 -138 178q-43 22 -81 32v3q-50 16 -101 16q-17 0 -34 -2q-120 -12 -226 -113.5
t-157 -273.5q-32 -104 -39 -211h706l-17 -60h-692q0 -30 2 -60h674l-17 -60h-652q17 -158 83 -298q74 -157 193 -236q102 -68 216 -69q186 3 256 91q74 91 74 185h48v-143q0 -70 -111 -127q-105 -54 -267 -56q-181 0 -325.5 98t-223.5 274z" />
    <glyph glyph-name="afii61352" unicode="&#x2116;" horiz-adv-x="2271" 
 />
    <glyph glyph-name="trademark" unicode="&#x2122;" horiz-adv-x="1497" 
 />
    <glyph glyph-name="partialdiff" unicode="&#x2202;" 
d="M232 537q0 -41 5 -79q14 -122 61.5 -230t118.5 -165q64 -53 128 -53q6 0 13 1q70 5 127.5 70.5t80.5 179.5q16 73 16 149q0 42 -5 85q-14 122 -62.5 231.5t-119.5 165.5q-65 50 -128 50h-11q-68 -5 -126 -69.5t-82 -178.5q-16 -84 -16 -157zM937 477q0 -132 -56.5 -251
t-159 -185t-214.5 -66t-214.5 66t-159 185t-56.5 251q0 131 58 251t161 185t211 65q109 0 212 -65q29 -18 54 -41q-84 235 -233.5 377t-326.5 155v55q306 0 515 -285t209 -697z" />
    <glyph glyph-name="Delta" unicode="&#x2206;" horiz-adv-x="1081" 
d="M514 1195l-406 -1072h801zM547 1434l526 -1434h-1067z" />
    <glyph glyph-name="product" unicode="&#x220f;" horiz-adv-x="1515" 
d="M511 1384q-102 0 -102 -235v-1281q0 -235 102 -235h97v-51h-560v51h96q103 0 103 235v1281q0 235 -103 235h-96v50h1419v-50h-97q-102 0 -102 -235v-1281q0 -235 102 -235h97v-50h-560v50h96q103 0 103 235v1281q0 235 -103 235h-492z" />
    <glyph glyph-name="summation" unicode="&#x2211;" horiz-adv-x="1206" 
d="M1059 548l-788 -914h635q130 0 189 182h49l-103 -232h-921v50q62 0 106 53l663 781l-663 859q-44 57 -106 57v50h921l103 -232h-49q-59 182 -189 182h-485z" />
    <glyph glyph-name="minus" unicode="&#x2212;" 
d="M87 647v140h839l1 -1v-139h-840z" />
    <glyph glyph-name="radical" unicode="&#x221a;" 
d="M181 0l-164 359l74 35l85 -185l728 1470h150v-60h-72z" />
    <glyph glyph-name="infinity" unicode="&#x221e;" 
d="M439 755q-15 103 -74 133q-46 22 -84 22q-12 0 -23 -2q-49 -10 -92.5 -44.5t-65.5 -84.5q-20 -46 -20 -90v-8q2 -48 27.5 -89t71.5 -58q29 -11 61 -11q16 0 33 3q47 10 90.5 43.5t75.5 185.5zM466 687q12 -96 94 -153q69 -48 123 -48q11 0 21 2q62 12 117.5 52t84.5 101
q26 54 26 108v11q-2 60 -35.5 108.5t-91.5 68.5q-37 13 -76 13q-22 0 -44 -4q-67 -9 -127 -62t-92 -197zM450 827q9 35 21 69q34 88 95 137t128 49t128 -48t95 -135t34 -182t-34 -182t-95 -135t-128 -48t-128 49t-95 136q-12 35 -21 70q-5 -21 -12 -41q-27 -73 -74 -113
t-99 -40t-100 41t-73.5 113.5t-25.5 149.5q0 76 25.5 149t73.5 114t100 41t99 -40t74 -112q7 -21 12 -42z" />
    <glyph glyph-name="integral" unicode="&#x222b;" horiz-adv-x="665" 
d="M-12 -281q-60 0 -60 29v159h36q1 -43 34.5 -64.5t63.5 -21.5h1q82 0 115 162q32 162 40 316l70 734l8 62q27 238 135 429.5t234 191.5q60 0 60 -29v-159h-36q-1 43 -35 64.5t-63 21.5q-71 0 -116 -155.5t-49 -363.5l-73 -767q-20 -231 -130.5 -420t-234.5 -189z" />
    <glyph glyph-name="approxequal" unicode="&#x2248;" 
d="M923 1053v-156q-63 -72 -122 -97.5t-116 -25.5q-60 0 -177.5 48.5t-176.5 48.5q-51 0 -107.5 -28t-129.5 -112v156q64 73 123 99t114 26q64 0 181.5 -49.5t172.5 -49.5q52 0 108.5 28t129.5 112zM923 705v-156q-63 -72 -122 -97.5t-116 -25.5q-60 0 -177.5 48.5
t-176.5 48.5q-51 0 -107.5 -28t-129.5 -112v156q64 73 123 99t114 26q64 0 181.5 -49.5t172.5 -49.5q52 0 108.5 28t129.5 112z" />
    <glyph glyph-name="lessequal" unicode="&#x2264;" 
d="M927 1074l-625 -359l625 -355v-167l-840 481v83l840 484v-167zM87 1v140h839l1 -1v-139h-840z" />
    <glyph glyph-name="greaterequal" unicode="&#x2265;" 
d="M87 1241l840 -484v-83l-840 -481v167l625 355l-625 359v167zM87 2v140h839l1 -1v-139h-840z" />
    <glyph glyph-name="uniF001" unicode="&#xf001;" horiz-adv-x="1073" 
 />
    <glyph glyph-name="uniF001" unicode="&#xfb01;" horiz-adv-x="1073" 
 />
    <glyph glyph-name="uniF002" unicode="&#xf002;" horiz-adv-x="1081" 
 />
    <glyph glyph-name="uniF002" unicode="&#xfb02;" horiz-adv-x="1081" 
 />
  </font>
</defs>
</svg>
